<svg
  version="1.1"
  xmlns="http://www.w3.org/2000/svg"
  x="0px"
  y="0px"
  viewBox="0 0 1400 980"
  style="enable-background:new 0 0 1400 980;"
  xml:space="preserve"
>
  <g id="bg">
    <polygon
      class="st0"
      points="0,0 0,747.3 0,803.6 0,977.5 1400,977.5 1400,803.6 1400,747.3 1400,0 	"
    />
  </g>
  <g id="lines">
    <g>
      <g>
        <path
          class="st1"
          d="M589.7,256h-94.9c-1.3,0-2.4-1.1-2.4-2.4v0c0-1.3,1.1-2.4,2.4-2.4h94.9c1.3,0,2.4,1.1,2.4,2.4v0
				C592,254.9,591,256,589.7,256z"
        />
      </g>
      <g>
        <rect x="537.2" y="43.4" class="st1" width="28.7" height="4.8" />
      </g>
      <g>
        <path
          class="st1"
          d="M550.4,275.5h-55.6c-1.3,0-2.4-1.1-2.4-2.4l0,0c0-1.3,1.1-2.4,2.4-2.4h55.6c1.3,0,2.4,1.1,2.4,2.4l0,0
				C552.8,274.4,551.7,275.5,550.4,275.5z"
        />
      </g>
      <g>
        <rect x="591.4" y="79.6" class="st1" width="28.7" height="4.8" />
      </g>
      <g>
        <rect x="605.8" y="99.8" class="st1" width="14.3" height="4.8" />
      </g>
      <g>
        <rect x="888.7" y="58.4" class="st1" width="134.8" height="4.8" />
      </g>
      <g>
        <rect x="888.7" y="77.8" class="st1" width="81.7" height="4.8" />
      </g>
      <g>
        <rect x="953.1" y="215.7" class="st1" width="106" height="4.8" />
      </g>
      <g>
        <rect x="996.4" y="237.7" class="st1" width="69.3" height="4.8" />
      </g>
      <g>
        <rect x="1051.4" y="257.8" class="st1" width="14.3" height="4.8" />
      </g>
      <g>
        <rect x="1208.8" y="207.3" class="st1" width="106" height="4.8" />
      </g>
      <g>
        <rect x="1279.6" y="229.3" class="st1" width="69.3" height="4.8" />
      </g>
      <g>
        <rect x="1238.7" y="249.4" class="st1" width="57.5" height="4.8" />
      </g>
      <g>
        <rect x="77.6" y="369.5" class="st1" width="52.2" height="4.8" />
      </g>
      <g>
        <rect x="144.6" y="369.5" class="st1" width="11.1" height="4.8" />
      </g>
      <g>
        <rect x="90.7" y="406.4" class="st1" width="52.2" height="4.8" />
      </g>
    </g>
  </g>
  <g id="Layer_3">
    <path
      class="st2"
      d="M1327.2,422.7c-24.7,4.1-181.7-98-211.5-104.1c-32.6-6.7-91.3,63.6-162.8,115.9L843.1,255
		c-28.7-63-70.9-69.5-102.5-15.8c-51.3,87.1-126.5,161.6-135.6,174.6c-14.3,20.6-219.8-87.1-246.5-101.7
		C332,297.3,215.5,466,185.4,490c-30.1,24-131.7-94.3-183.5-67.3L0,515.4v274.2h1400l0.2-429.8
		C1400.3,359.8,1354.7,418.1,1327.2,422.7z"
    />
  </g>
  <g id="Layer_4">
    <g>
      <g>
        <path
          class="st3"
          d="M39.4,559c-2.6,2.9-8.6,9.5-3.6,15.5c2.6,3,6.4,4.1,9.5,4.5c3.9,0.4,7.4-2.7,7.2-6.7c-0.1-1.9,0-4.2-1.3-6.9
				C47.1,556.8,41,557.3,39.4,559z"
        />
        <polygon class="st4" points="43.3,567.9 41.8,598.9 43.7,598.9 			" />
      </g>
      <g>
        <path
          class="st3"
          d="M34.3,578.8c0.1,1,0.3,3.5,2.4,3.5c1.1,0,2-0.5,2.6-1.1c0.8-0.7,0.8-2,0-2.7c-0.4-0.3-0.8-0.8-1.6-1
				C35.3,576.8,34.3,578.2,34.3,578.8z"
        />
        <polygon class="st4" points="36.8,579.6 42.7,585.6 43,585.2 			" />
      </g>
    </g>
    <g>
      <g>
        <path
          class="st3"
          d="M124.9,578.9l-7.1-7.4c-2.2-2.2-5.8-1.9-7.5,0.8l-3.8,6c-1.6,2.5-0.6,5.8,2.1,7l9.9,4.4
				c2.6,1.1,5.5-0.2,6.5-2.8l1.1-3C126.6,582.1,126.1,580.2,124.9,578.9z"
        />
        <polygon class="st4" points="116.5,580.3 118.5,621.4 115.3,621.4 			" />
      </g>
      <g>
        <path
          class="st3"
          d="M112.5,589.7l-4.3,0c-1.3,0-2.2,1.2-1.9,2.5l0.7,2.9c0.3,1.2,1.6,1.9,2.7,1.4l4.2-1.7c1.1-0.4,1.6-1.7,1-2.8
				l-0.6-1.2C114,590.1,113.3,589.7,112.5,589.7z"
        />
        <polygon class="st4" points="110.5,592.6 116.9,598.2 116,599.2 			" />
      </g>
    </g>
    <g>
      <g>
        <path
          class="st3"
          d="M421.1,620.7l-7.1-7.4c-2.2-2.2-5.8-1.9-7.5,0.8l-3.8,6c-1.6,2.5-0.6,5.8,2.1,7l9.9,4.4
				c2.6,1.1,5.5-0.2,6.5-2.8l1.1-3C422.8,623.9,422.4,622,421.1,620.7z"
        />
        <polygon class="st4" points="412.7,622.1 414.7,663.2 411.5,663.2 			" />
      </g>
      <g>
        <path
          class="st3"
          d="M408.7,631.5l-4.3,0c-1.3,0-2.2,1.2-1.9,2.5l0.7,2.9c0.3,1.2,1.6,1.9,2.7,1.4l4.2-1.7c1.1-0.4,1.6-1.7,1-2.8
				l-0.6-1.2C410.2,631.9,409.5,631.5,408.7,631.5z"
        />
        <polygon class="st4" points="406.7,634.4 413.1,640 412.2,641 			" />
      </g>
    </g>
    <g>
      <path
        class="st5"
        d="M83.3,562.8c-4.3,4.7-14.2,15.7-5.8,25.5c4.2,5,10.5,6.8,15.7,7.4c6.5,0.7,12.1-4.5,11.9-11.1
			c-0.1-3.1-0.1-6.9-2.2-11.3C96,559.1,85.9,559.9,83.3,562.8z"
      />
      <polygon class="st4" points="89.6,577.5 87.2,628.4 90.3,628.4 		" />
    </g>
    <g>
      <path
        class="st5"
        d="M2.8,551.8l11.8-12.2c3.6-3.7,9.7-3.1,12.4,1.3l6.3,10c2.6,4.1,0.9,9.6-3.5,11.6l-16.4,7.2
			c-4.3,1.9-9.2-0.3-10.7-4.7L1,560C0,557.2,0.7,554,2.8,551.8z"
      />
      <polygon class="st4" points="16.7,554 13.4,600.7 18.7,600.7 		" />
    </g>
    <g>
      <g>
        <path
          class="st3"
          d="M299.7,624.8l15-15.5c4.5-4.7,12.2-3.9,15.7,1.6l8,12.7c3.3,5.2,1.2,12.2-4.5,14.7l-20.8,9.2
				c-5.4,2.4-11.6-0.4-13.6-6l-2.2-6.4C296.1,631.6,297,627.6,299.7,624.8z"
        />
        <polygon class="st4" points="317.2,627.5 313,713.8 319.7,713.8 			" />
      </g>
      <g>
        <path
          class="st3"
          d="M325.6,653.9l9,0c2.7,0,4.7,2.6,4.1,5.2l-1.5,6.1c-0.6,2.5-3.3,3.9-5.7,2.9l-8.8-3.6
				c-2.3-0.9-3.3-3.6-2.2-5.8l1.3-2.5C322.5,654.8,324,653.9,325.6,653.9z"
        />
        <polygon class="st4" points="329.9,659.9 316.4,671.8 318.3,673.8 			" />
      </g>
    </g>
    <g>
      <g>
        <path
          class="st3"
          d="M559.8,556.4l15-15.5c4.5-4.7,12.2-3.9,15.7,1.6l8,12.7c3.3,5.2,1.2,12.2-4.5,14.7l-20.8,9.2
				c-5.4,2.4-11.6-0.4-13.6-6l-2.2-6.4C556.3,563.2,557.2,559.2,559.8,556.4z"
        />
        <polygon class="st4" points="577.4,559.2 573.2,645.4 579.9,645.4 			" />
      </g>
      <g>
        <path
          class="st3"
          d="M585.8,585.5l9,0c2.7,0,4.7,2.6,4.1,5.2l-1.5,6.1c-0.6,2.5-3.3,3.9-5.7,2.9l-8.8-3.6
				c-2.3-0.9-3.3-3.6-2.2-5.8l1.3-2.5C582.7,586.4,584.2,585.5,585.8,585.5z"
        />
        <polygon class="st4" points="590.1,591.6 576.6,603.4 578.5,605.4 			" />
      </g>
    </g>
    <g>
      <path
        class="st3"
        d="M54.9,535.8l20.8,4c5.8,1.1,10.2,5.8,10.8,11.7l1,8.7c0.7,6.3-2.9,12.2-8.9,14.3l-14.3,5.1
			c-4.2,1.5-8.9,0.8-12.5-1.9l-11.2-8.3c-4.9-3.6-6.7-10-4.6-15.7l3.6-9.5C42.1,538.2,48.4,534.6,54.9,535.8z"
      />
      <polygon class="st4" points="61.9,557.2 57.7,647.8 64.4,647.8 		" />
    </g>
    <g>
      <g>
        <path
          class="st5"
          d="M294.7,644.9l-9.5-10.2c-2.9-3.1-7.8-2.6-10,1.1l-5.1,8.4c-2.1,3.5-0.7,8.1,2.8,9.7l13.1,6.1
				c3.4,1.6,7.4-0.2,8.6-3.9l1.4-4.2C296.9,649.3,296.3,646.7,294.7,644.9z"
        />
        <polygon class="st4" points="283.5,646.8 286.2,690.1 281.9,690.1 			" />
      </g>
      <g>
        <path
          class="st5"
          d="M278.2,659.8l-5.7,0c-1.7,0-3,1.7-2.6,3.5l0.9,4c0.4,1.7,2.1,2.6,3.6,1.9l5.5-2.4c1.4-0.6,2.1-2.4,1.4-3.8
				l-0.8-1.7C280.2,660.4,279.2,659.8,278.2,659.8z"
        />
        <polygon class="st4" points="275.5,663.8 284.1,671.7 282.8,673 			" />
      </g>
    </g>
    <g>
      <g>
        <path
          class="st5"
          d="M568.8,588l-9.5-10.2c-2.9-3.1-7.8-2.6-10,1.1l-5.1,8.4c-2.1,3.5-0.7,8.1,2.8,9.7l13.1,6.1
				c3.4,1.6,7.4-0.2,8.6-3.9l1.4-4.2C571.1,592.5,570.5,589.9,568.8,588z"
        />
        <polygon class="st4" points="557.7,590 560.4,633.2 556.1,633.2 			" />
      </g>
      <g>
        <path
          class="st5"
          d="M552.4,603l-5.7,0c-1.7,0-3,1.7-2.6,3.5l0.9,4c0.4,1.7,2.1,2.6,3.6,1.9l5.5-2.4c1.4-0.6,2.1-2.4,1.4-3.8
				l-0.8-1.7C554.3,603.6,553.4,603,552.4,603z"
        />
        <polygon class="st4" points="549.7,607 558.2,614.9 557,616.2 			" />
      </g>
    </g>
    <g>
      <ellipse class="st5" cx="220.9" cy="627.7" rx="16.5" ry="16.5" />
      <polygon class="st4" points="220.9,632 218.5,675.2 223.4,675.2 		" />
    </g>
    <g>
      <ellipse class="st5" cx="450.7" cy="610.1" rx="16.5" ry="16.5" />
      <polygon class="st4" points="450.7,614.4 448.3,657.6 453.2,657.6 		" />
    </g>
    <g>
      <ellipse class="st3" cx="147.7" cy="586.5" rx="22.5" ry="22.6" />
      <path
        class="st3"
        d="M170.3,593.4c1.5,0.3,3.2,0.6,5,0.9c4,0.7,6.3,5,4.7,8.7l-3.5,8.1c-1.1,2.5-3.6,4-6.3,3.8l-7.1-0.6
			c-4.8-0.4-7.4-5.9-4.7-9.9l5.6-8.3C165.4,594.1,167.9,593,170.3,593.4z"
      />
      <polygon class="st4" points="149.9,594.5 146.6,653.6 153.3,653.6 		" />
      <polygon class="st4" points="163.7,609.5 149.9,620.3 151.7,625.5 		" />
    </g>
    <g>
      <ellipse class="st3" cx="481.4" cy="580.3" rx="22.5" ry="22.6" />
      <path
        class="st3"
        d="M504,587.2c1.5,0.3,3.2,0.6,5,0.9c4,0.7,6.3,5,4.7,8.7l-3.5,8.1c-1.1,2.5-3.6,4-6.3,3.8l-7.1-0.6
			c-4.8-0.4-7.4-5.9-4.7-9.9l5.6-8.3C499.1,587.8,501.6,586.7,504,587.2z"
      />
      <polygon class="st4" points="483.6,588.3 480.3,647.4 487,647.4 		" />
      <polygon class="st4" points="497.4,603.2 483.6,614 485.4,619.3 		" />
    </g>
    <g>
      <ellipse class="st3" cx="361.2" cy="612.2" rx="22.5" ry="22.6" />
      <path
        class="st3"
        d="M383.7,619.1c1.5,0.3,3.2,0.6,5,0.9c4,0.7,6.3,5,4.7,8.7l-3.5,8.1c-1.1,2.5-3.6,4-6.3,3.8l-7.1-0.6
			c-4.8-0.4-7.4-5.9-4.7-9.9l5.6-8.3C378.9,619.7,381.3,618.7,383.7,619.1z"
      />
      <polygon class="st4" points="363.4,620.2 360,679.3 366.7,679.3 		" />
      <polygon class="st4" points="377.1,635.1 363.4,646 365.1,651.2 		" />
    </g>
    <g>
      <path
        class="st3"
        d="M240.5,600.9l20.8,3.3c5.8,0.9,10.2,4.8,10.8,9.6l1,7.1c0.7,5.1-2.9,10-8.9,11.8l-14.3,4.2
			c-4.2,1.2-8.9,0.7-12.5-1.5l-11.2-6.8c-4.9-3-6.7-8.2-4.6-12.9l3.6-7.8C227.7,602.9,234.1,599.9,240.5,600.9z"
      />
      <polygon class="st4" points="247.5,622.8 243.3,686.3 250,686.3 		" />
    </g>
    <g>
      <ellipse class="st5" cx="198.4" cy="585" rx="19.1" ry="19.8" />
      <path
        class="st5"
        d="M218,593.7c1.2,0.6,2.5,1.4,3.8,2.1c3.1,1.7,3.8,7,1.5,10.8l-5,8.2c-1.6,2.5-4.1,3.7-6.2,2.8l-5.6-2.3
			c-3.8-1.6-4.5-8.2-1.2-12.1l6.9-8C213.9,593.3,216.2,592.7,218,593.7z"
      />
      <polygon class="st4" points="198.4,589.1 195.5,657.1 201.2,657.1 		" />
      <polygon class="st4" points="210,606.3 198.4,618.8 199.8,624.8 		" />
    </g>
    <g>
      <ellipse class="st5" cx="664.6" cy="596.5" rx="10.7" ry="11.1" />
      <path
        class="st5"
        d="M675.7,601.4c0.7,0.4,1.4,0.8,2.1,1.2c1.7,1,2.1,3.9,0.8,6.1l-2.8,4.6c-0.9,1.4-2.3,2-3.5,1.6l-3.2-1.3
			c-2.1-0.9-2.5-4.6-0.6-6.8l3.8-4.5C673.3,601.2,674.6,600.8,675.7,601.4z"
      />
      <polygon class="st4" points="664.6,598.8 663,636.9 666.2,636.9 		" />
      <polygon class="st4" points="671.2,608.5 664.6,615.4 665.5,618.8 		" />
    </g>
    <g>
      <ellipse class="st5" cx="527.1" cy="601.1" rx="16.5" ry="16.5" />
      <polygon class="st4" points="527.1,605.4 524.6,648.6 529.6,648.6 		" />
    </g>
    <g>
      <ellipse class="st3" cx="624.9" cy="576.1" rx="22.5" ry="22.6" />
      <path
        class="st3"
        d="M647.5,583c1.5,0.3,3.2,0.6,5,0.9c4,0.7,6.3,5,4.7,8.7l-3.5,8.1c-1.1,2.5-3.6,4-6.3,3.8l-7.1-0.6
			c-4.8-0.4-7.4-5.9-4.7-9.9l5.6-8.3C642.6,583.7,645.1,582.6,647.5,583z"
      />
      <polygon class="st4" points="627.1,584.1 623.8,643.3 630.5,643.3 		" />
      <polygon class="st4" points="640.9,599.1 627.1,609.9 628.9,615.1 		" />
    </g>
  </g>
  <g id="Layer_5">
    <g>
      <path
        class="st6"
        d="M1379.7,765.9c0-142.7-339-43-505.3-59c-86.2-8.3-152.8-70.8-238.7-78.8c-85.9-8-173.1,7.9-253.7,39.1
			c-25.8,10-51.8,21.7-79.4,22.2c-37,0.6-70.9-18.9-103.6-36.5c-61.7-33.3-128.5-62.2-198.4-61.2v190.5L1379.7,765.9z"
      />
    </g>
  </g>
  <g id="Layer_6">
    <g>
      <path
        class="st7"
        d="M1136.9,734.9c-108.6,5.8-216-17.7-322.5-0.5c-53.1,8.6-107.4,18.6-161.1,12.6
			c-41.4-4.6-80.8-18.7-122.7-18.9c-46.9-0.2-90.4,16.9-135.2,27.5c-50.3,11.9-105.2,15.7-155.6,4.1c-42.5-9.8-79.5-29.8-120.7-42.4
			c-38-11.6-84.2-15.9-118.6-0.2v109.5c458.9-2.3,940.6-4.8,1399.4-7.2V687.6C1324.7,665.8,1217.5,730.6,1136.9,734.9z"
      />
    </g>
  </g>
  <g id="Layer_7">
    <g>
      <g>
        <g>
          <path
            class="st3"
            d="M770.9,648.7c-9.2,10.1-30.5,33.7-12.6,54.9c9.1,10.8,22.7,14.6,33.8,15.8c13.9,1.5,26.1-9.7,25.6-23.8
					c-0.3-6.8-0.2-14.9-4.7-24.3C798.3,640.6,776.6,642.5,770.9,648.7z"
          />
          <polygon
            class="st4"
            points="784.6,680.2 779.2,789.6 786.1,789.6 				"
          />
        </g>
        <g>
          <path
            class="st3"
            d="M752.9,718.6c0.3,3.7,1.2,12.3,8.6,12.5c3.8,0.1,7-1.9,9.3-3.9c2.8-2.5,2.8-7-0.1-9.5
					c-1.4-1.2-3-2.7-5.7-3.5C756.3,711.6,752.7,716.3,752.9,718.6z"
          />
          <polygon
            class="st4"
            points="761.7,721.6 782.4,742.5 783.7,741.2 				"
          />
        </g>
      </g>
      <g>
        <g>
          <path
            class="st3"
            d="M984.5,639.2l-25.3-26.1c-7.7-7.9-20.6-6.5-26.5,2.8l-13.5,21.4c-5.6,8.8-2,20.6,7.5,24.8l35,15.4
					c9.1,4,19.6-0.6,22.9-10l3.7-10.8C990.5,650.7,989,643.9,984.5,639.2z"
          />
          <polygon
            class="st4"
            points="954.9,644.1 962,789.6 950.6,789.6 				"
          />
        </g>
        <g>
          <path
            class="st3"
            d="M940.8,677.3l-15.1,0c-4.6,0-7.9,4.3-6.9,8.8l2.5,10.3c1,4.2,5.6,6.6,9.6,4.9l14.8-6.1
					c3.8-1.6,5.5-6.1,3.6-9.8l-2.1-4.2C945.9,678.8,943.4,677.3,940.8,677.3z"
          />
          <polygon class="st4" points="933.5,687.6 956.3,707.6 953,711 				" />
        </g>
      </g>
      <g>
        <g>
          <g>
            <path
              class="st5"
              d="M879.1,559.7C864,576.4,829,615.2,858.5,650c15,17.7,37.3,24.1,55.6,26.1c22.9,2.5,42.9-16,42-39.1
						c-0.4-11.1-0.3-24.5-7.7-39.9C924.1,546.5,888.4,549.5,879.1,559.7z"
            />
            <polygon
              class="st4"
              points="901.6,611.6 892.8,791.7 904,791.7 					"
            />
          </g>
          <g>
            <path
              class="st5"
              d="M849.5,674.8c0.6,6.1,1.9,20.2,14.2,20.6c6.3,0.2,11.6-3.1,15.3-6.4c4.7-4.2,4.6-11.5-0.1-15.6
						c-2.3-1.9-4.9-4.4-9.3-5.7C855.1,663.3,849.2,671,849.5,674.8z"
            />
            <polygon
              class="st4"
              points="863.9,679.7 898.1,714.2 900.1,711.9 					"
            />
          </g>
        </g>
        <g>
          <g>
            <path
              class="st3"
              d="M1399.3,453.3l-14-22.3c-12.3-19.6-39.6-22.4-55.6-5.8l-53,54.7c-9.4,9.7-12.6,23.9-8.1,36.7l7.8,22.6
						c6.8,19.7,28.9,29.4,48,21l73.4-32.4c0.5-0.2,1.1-0.5,1.6-0.8V453.3z"
            />
            <polygon
              class="st4"
              points="1338.8,489.5 1324,794.5 1347.7,794.5 					"
            />
          </g>
          <g>
            <path
              class="st5"
              d="M684.6,616.6l41.9-43.2c12.7-13.1,34.2-10.8,44,4.6l22.3,35.5c9.2,14.6,3.3,34.1-12.5,41.1l-58,25.6
						c-15,6.6-32.5-1-37.9-16.6l-6.2-17.8C674.7,635.5,677.1,624.3,684.6,616.6z"
            />
            <polygon
              class="st4"
              points="733.7,624.2 722,789.6 740.8,789.6 					"
            />
          </g>
          <g>
            <path
              class="st3"
              d="M1399.3,559.8l-30.9-0.1c-5.6,0-10.8,3.2-13.3,8.2l-4.5,8.9c-3.9,7.8-0.4,17.3,7.7,20.6l31,12.7
						c3.4,1.4,6.9,1.4,10,0.4V559.8z"
            />
            <polygon
              class="st4"
              points="1383.6,581.2 1335.9,623.1 1342.8,630.3 					"
            />
          </g>
        </g>
      </g>
      <g>
        <path
          class="st3"
          d="M787.1,398.6l73.7,14.1c20.4,3.9,35.9,20.6,38.4,41.4l3.6,30.7c2.6,22.2-10.4,43.2-31.3,50.7l-50.5,18
				c-14.9,5.3-31.4,2.8-44.2-6.6l-39.5-29.3c-17.2-12.7-23.8-35.4-16.2-55.4l12.6-33.5C742,406.9,764.4,394.2,787.1,398.6z"
        />
        <polygon class="st4" points="812,474.3 797.1,794.5 820.9,794.5 			" />
      </g>
      <g>
        <g>
          <path
            class="st5"
            d="M1153,631.7l-33.5-36.2c-10.2-11-27.4-9.1-35.2,3.9l-17.9,29.7c-7.4,12.3-2.6,28.6,10,34.4l46.5,21.4
					c12.1,5.6,26.1-0.9,30.4-13.9l4.9-14.9C1161,647.6,1159,638.2,1153,631.7z"
          />
          <polygon
            class="st4"
            points="1113.7,638.5 1123.1,791.6 1108.1,791.6 				"
          />
        </g>
        <g>
          <path
            class="st5"
            d="M1095,684.6l-20.1,0.1c-6.1,0-10.6,6-9.1,12.2l3.3,14.3c1.4,5.9,7.4,9.1,12.7,6.8l19.6-8.4
					c5.1-2.2,7.3-8.5,4.8-13.6l-2.8-5.9C1101.8,686.7,1098.5,684.6,1095,684.6z"
          />
          <polygon
            class="st4"
            points="1085.3,698.8 1115.6,726.6 1111.2,731.3 				"
          />
        </g>
      </g>
      <g>
        <ellipse class="st3" cx="996.8" cy="557.3" rx="79.7" ry="80.1" />
        <path
          class="st3"
          d="M1076.6,581.7c5.3,0.9,11.5,2,17.5,3.1c14.1,2.5,22.2,17.7,16.5,30.9l-12.2,28.5
				c-3.8,8.8-12.8,14.3-22.4,13.4l-25-2.2c-17-1.5-26.1-20.8-16.5-34.9l19.9-29.4C1059.5,584,1068.1,580.3,1076.6,581.7z"
        />
        <polygon
          class="st4"
          points="1004.6,585.7 992.7,794.7 1016.4,794.7 			"
        />
        <polygon
          class="st4"
          points="1053.2,638.5 1004.6,676.8 1010.8,695.3 			"
        />
      </g>
      <g>
        <ellipse class="st5" cx="1261.9" cy="623.7" rx="58.2" ry="58.5" />
        <polygon
          class="st4"
          points="1261.9,638.9 1253.2,791.7 1270.6,791.7 			"
        />
      </g>
      <g>
        <path
          class="st3"
          d="M1179.9,492.9l73.7,11.5c20.4,3.2,35.9,17,38.4,34l3.6,25.2c2.6,18.2-10.4,35.5-31.3,41.6l-50.5,14.8
				c-14.9,4.4-31.4,2.3-44.2-5.4l-39.5-24.1c-17.2-10.5-23.8-29.1-16.2-45.5l12.6-27.5C1134.8,499.8,1157.3,489.4,1179.9,492.9z"
        />
        <polygon
          class="st4"
          points="1204.8,570.2 1190,794.7 1213.7,794.7 			"
        />
      </g>
      <g>
        <ellipse class="st5" cx="1064.8" cy="468.1" rx="92.3" ry="88.8" />
        <path
          class="st5"
          d="M1160,507.1c5.6,2.8,12.1,6.2,18.5,9.5c14.9,7.7,18.4,31.5,7.1,48.5l-24.3,36.8c-7.5,11.4-19.6,16.4-30,12.5
				l-27.2-10.4c-18.5-7-21.6-37-5.6-54.2l33.2-35.7C1139.9,505.3,1150.9,502.6,1160,507.1z"
        />
        <polygon class="st4" points="1064.8,486.4 1051,792 1078.6,792 			" />
        <polygon
          class="st4"
          points="1121.2,563.7 1064.8,619.7 1072,646.7 			"
        />
      </g>
    </g>
  </g>
  <g id="Layer_8">
    <g>
      <rect x="0" y="786" class="st8" width="1400" height="194" />
      <rect x="0" y="821.4" class="st9" width="1400" height="158.6" />
      <g>
        <ellipse class="st10" cx="351.6" cy="889" rx="4.2" ry="4.2" />
        <ellipse class="st10" cx="338.5" cy="902.8" rx="3.1" ry="3" />
        <ellipse class="st10" cx="377.1" cy="902.8" rx="1.5" ry="1.4" />
        <ellipse class="st10" cx="321.6" cy="882.6" rx="6.4" ry="6.4" />
        <ellipse class="st10" cx="403.6" cy="879.3" rx="3.2" ry="3.2" />
        <ellipse class="st10" cx="880.4" cy="869.8" rx="5.8" ry="5.7" />
        <ellipse class="st11" cx="861.6" cy="874" rx="1.5" ry="1.4" />
        <ellipse class="st10" cx="877.4" cy="893.2" rx="3" ry="3" />
        <ellipse class="st10" cx="887.7" cy="885" rx="1.7" ry="1.7" />
        <ellipse class="st11" cx="850.9" cy="891.6" rx="1.7" ry="1.7" />
        <ellipse class="st10" cx="986.6" cy="848.9" rx="5.1" ry="5" />
        <ellipse class="st10" cx="974.4" cy="861" rx="2.1" ry="2.1" />
        <ellipse class="st10" cx="958.3" cy="848.9" rx="2.7" ry="2.7" />
        <ellipse class="st10" cx="953" cy="873.2" rx="5.4" ry="5.3" />
        <ellipse class="st10" cx="978.3" cy="873.2" rx="3.3" ry="3.3" />
        <ellipse class="st10" cx="810.4" cy="914.8" rx="5.1" ry="5" />
        <ellipse class="st10" cx="798.2" cy="926.9" rx="2.1" ry="2.1" />
        <ellipse class="st10" cx="782.1" cy="914.8" rx="2.7" ry="2.7" />
        <ellipse class="st10" cx="776.8" cy="939.1" rx="5.4" ry="5.3" />
        <ellipse class="st10" cx="802.1" cy="939.1" rx="3.3" ry="3.3" />
        <ellipse class="st11" cx="927.4" cy="946" rx="4.6" ry="4.6" />
        <ellipse class="st11" cx="940.3" cy="942" rx="4" ry="4" />
        <ellipse class="st10" cx="1304.3" cy="849.8" rx="6.9" ry="6.9" />
        <ellipse class="st10" cx="1321.6" cy="858" rx="1.4" ry="1.4" />
        <ellipse class="st10" cx="1332.7" cy="845" rx="5.4" ry="5.4" />
        <ellipse class="st10" cx="1339.9" cy="852.8" rx="1" ry="1" />
        <ellipse class="st11" cx="1342.7" cy="862.2" rx="2.9" ry="2.8" />
        <ellipse class="st11" cx="1350.8" cy="852.8" rx="3.9" ry="3.9" />
        <ellipse class="st10" cx="1289" cy="851.8" rx="2.1" ry="2.1" />
        <ellipse class="st10" cx="1274.8" cy="901.3" rx="4.1" ry="4.1" />
        <ellipse class="st10" cx="1266.3" cy="912.6" rx="1.7" ry="1.7" />
        <ellipse class="st10" cx="1256.4" cy="921.3" rx="2.4" ry="2.4" />
        <ellipse class="st10" cx="1328.3" cy="958.3" rx="7.5" ry="7.4" />
        <ellipse class="st10" cx="1344.3" cy="948.5" rx="2.4" ry="2.4" />
        <ellipse class="st11" cx="1351.8" cy="946.2" rx="2.4" ry="2.4" />
        <ellipse class="st10" cx="1313.3" cy="958.3" rx="3.7" ry="3.7" />
        <ellipse class="st10" cx="1313.3" cy="966.4" rx="2.7" ry="2.7" />
        <ellipse class="st10" cx="1338.2" cy="939.8" rx="4" ry="4" />
        <ellipse class="st12" cx="1217.4" cy="953.7" rx="3.7" ry="4.7" />
        <ellipse class="st12" cx="1205.4" cy="954.2" rx="1.1" ry="1.2" />
        <ellipse class="st13" cx="1232.6" cy="957.8" rx="1" ry="2.4" />
        <ellipse class="st13" cx="1224.2" cy="959.3" rx="0.9" ry="0.9" />
        <ellipse class="st13" cx="1218.3" cy="963.5" rx="0.9" ry="0.8" />
        <ellipse class="st12" cx="1207.6" cy="963.2" rx="1" ry="1.3" />
        <ellipse class="st12" cx="1266.8" cy="955" rx="2.1" ry="2" />
        <ellipse class="st13" cx="1272.2" cy="959.6" rx="0.8" ry="1.1" />
        <ellipse class="st13" cx="1264.1" cy="958.2" rx="0.5" ry="0.7" />
        <ellipse class="st13" cx="1259" cy="953.6" rx="1.1" ry="1" />
        <ellipse class="st12" cx="1274.2" cy="953.8" rx="0.5" ry="0.8" />
        <ellipse class="st12" cx="1266.1" cy="961.3" rx="0.6" ry="0.6" />
        <ellipse class="st10" cx="1032" cy="902.5" rx="4.1" ry="4.1" />
        <ellipse class="st10" cx="1023.5" cy="913.8" rx="1.7" ry="1.7" />
        <ellipse class="st10" cx="1013.6" cy="922.5" rx="2.4" ry="2.4" />
        <ellipse class="st10" cx="1085.5" cy="957.1" rx="7.5" ry="7.4" />
        <ellipse class="st10" cx="1101.6" cy="949.7" rx="2.4" ry="2.4" />
        <ellipse class="st11" cx="1109.1" cy="947.4" rx="2.4" ry="2.4" />
        <ellipse class="st10" cx="1070.5" cy="959.5" rx="3.7" ry="3.7" />
        <ellipse class="st10" cx="1070.5" cy="967.6" rx="2.7" ry="2.7" />
        <ellipse class="st10" cx="1095.4" cy="941" rx="4" ry="4" />
        <ellipse class="st12" cx="292.8" cy="960.1" rx="3.7" ry="4.7" />
        <ellipse class="st12" cx="280.8" cy="960.6" rx="1.1" ry="1.2" />
        <ellipse class="st13" cx="308" cy="961.8" rx="1" ry="2.4" />
        <ellipse class="st13" cx="299.5" cy="963.3" rx="0.9" ry="0.9" />
        <ellipse class="st13" cx="293.6" cy="967.5" rx="0.9" ry="0.8" />
        <ellipse class="st12" cx="282.9" cy="969.7" rx="1" ry="1.3" />
        <ellipse class="st12" cx="1024" cy="956.2" rx="2.1" ry="2" />
        <ellipse class="st13" cx="1029.4" cy="960.8" rx="0.8" ry="1.1" />
        <ellipse class="st13" cx="1021.4" cy="959.5" rx="0.5" ry="0.7" />
        <ellipse class="st13" cx="334.3" cy="960.1" rx="1.1" ry="1" />
        <ellipse class="st12" cx="1031.4" cy="955" rx="0.5" ry="0.8" />
        <ellipse class="st12" cx="1023.4" cy="962.5" rx="0.6" ry="0.6" />
      </g>
      <g>
        <ellipse class="st10" cx="31.7" cy="836.1" rx="1.5" ry="1.4" />
        <ellipse class="st10" cx="58.3" cy="812.7" rx="3.2" ry="3.2" />
        <ellipse class="st10" cx="120.7" cy="826.7" rx="4.1" ry="4.1" />
        <ellipse class="st10" cx="112.2" cy="837.9" rx="1.7" ry="1.7" />
        <ellipse class="st10" cx="102.3" cy="846.7" rx="2.4" ry="2.4" />
        <ellipse class="st10" cx="174.2" cy="883.7" rx="7.5" ry="7.4" />
        <ellipse class="st10" cx="190.3" cy="873.9" rx="2.4" ry="2.4" />
        <ellipse class="st11" cx="197.8" cy="871.5" rx="2.4" ry="2.4" />
        <ellipse class="st10" cx="159.2" cy="883.7" rx="3.7" ry="3.7" />
        <ellipse class="st10" cx="159.2" cy="894.2" rx="2.7" ry="2.7" />
        <ellipse class="st10" cx="184.1" cy="865.2" rx="4" ry="4" />
        <ellipse class="st11" cx="138.1" cy="942.1" rx="5.2" ry="5.2" />
        <ellipse class="st11" cx="152.4" cy="942.8" rx="3.1" ry="3.1" />
        <ellipse class="st10" cx="211.6" cy="924.3" rx="5.3" ry="5.3" />
        <ellipse class="st11" cx="228.1" cy="919.9" rx="2.4" ry="2.4" />
        <ellipse class="st12" cx="112.7" cy="880.4" rx="2.1" ry="2" />
        <ellipse class="st13" cx="118.1" cy="885" rx="0.8" ry="1.1" />
        <ellipse class="st13" cx="110.1" cy="883.6" rx="0.5" ry="0.7" />
        <ellipse class="st12" cx="120.1" cy="879.2" rx="0.5" ry="0.8" />
        <ellipse class="st12" cx="112.1" cy="886.7" rx="0.6" ry="0.6" />
      </g>
      <g>
        <ellipse class="st10" cx="1124.7" cy="886.1" rx="1.5" ry="1.4" />
        <ellipse class="st10" cx="1151.2" cy="862.6" rx="3.2" ry="3.2" />
        <ellipse class="st10" cx="1213.6" cy="876.6" rx="4.1" ry="4.1" />
        <ellipse class="st10" cx="1205.1" cy="887.9" rx="1.7" ry="1.7" />
        <ellipse class="st10" cx="1195.2" cy="896.6" rx="2.4" ry="2.4" />
      </g>
    </g>
  </g>
  <g id="Layer_9">
    <g>
      <path
        class="st14"
        d="M696.8,965.2c7.7-1.3,13.5-7.9,13.6-15.9l0-0.1c0-8.9-7.3-16.2-16.3-16.2l-29.5,0c-0.3,0-0.6,0-0.9,0
			l-14.6,0c-9,0-16.3-7.3-16.3-16.2l0-0.1c0-8.9,7.3-16.2,16.3-16.2l14.5,0c0.3,0,0.6,0,1,0h66.6c9,0,16.3-7.3,16.3-16.2v-0.1
			c0-8.9-7.3-16.2-16.3-16.2H612.8c-9.2,0-11.6-7.9-11.6-15.5c0-8.3,3.7-13.1,8.7-13.1c0.3,0,0.6,0,0.9-0.1l76.6-0.1
			c5.2,0,9.4-4.2,9.4-9.4v-0.1c0-4.5-3.1-8.2-7.3-9.1l-48.8,0c-5.2,0-9.4-4.2-9.4-9.3l0-0.1c0-5.2,4.2-9.3,9.4-9.4l5.6,0
			c0.6-0.1,1.2-0.2,1.8-0.2h88.9c5.2,0,9.4-4.2,9.4-9.3v-0.1c0-5.2-4.2-9.3-9.4-9.3h-14.1c-1.2-0.8-2.7-1.2-4.3-1
			c-3.4,0.5-7.4,0.9-11.3,0.9c-9.4,0-9.4-2.7-18.8-2.7c-9.4,0-9.4,2.7-18.8,2.7c-9.4,0-9.4-2.7-18.8-2.7c-9.4,0-9.4,2.7-18.8,2.7
			c-9.4,0-9.4-2.7-18.8-2.7c-8.9,0-9.4,2.4-17.4,2.7c-0.5,0-1.1,0-1.6,0c-9.4,0-9.4-2.7-18.8-2.7c-9.4,0-9.4,2.7-18.8,2.7
			c-9.4,0-9.4-2.7-18.8-2.7c-9.4,0-9.4,2.7-18.8,2.7c-9.4,0-9.4-2.7-18.8-2.7c-9.4,0-9.4,2.7-18.8,2.7c-9.4,0-9.4-2.7-18.8-2.7
			c-9.4,0-9.4,2.7-18.8,2.7c-9.4,0-9.4-2.7-18.8-2.7c-9.4,0-9.4,2.7-18.8,2.7c-9.4,0-9.4-2.7-18.8-2.7c-9.4,0-9.4,2.7-18.8,2.7
			c-3.9,0-7.9-0.4-11.3-0.9c-0.1,0-0.1,0-0.2,0v183.3H696.8z"
      />
      <g>
        <g class="st15">
          <path
            class="st16"
            d="M365.3,803.6c9.1-0.6,7.9-1.8,13.3-1.2c9.2,1.1,9.3,2.7,18.5,2.7c9.3,0,9.3-2.7,18.5-2.7
					c9.3,0,9.3,2.7,18.5,2.7c9.3,0,9.3-2.7,18.5-2.7c9.3,0,9.3,2.7,18.5,2.7c9.3,0,9.3-2.7,18.5-2.7c9.3,0,9.3,2.7,18.5,2.7
					c9.3,0,9.3-2.7,18.5-2.7c9.3,0,9.3,2.7,18.5,2.7c9.3,0,9.3-2.7,18.5-2.7c9.3,0,9.3,2.7,18.5,2.7c5.3,0,8.2-4,12.4-5
					c4.2-1,7.1,0.6,7.1,0.6c-6.9-6.1-10.2,2.3-19.4,2.3c-9.3,0-9.3-2.7-18.5-2.7c-9.3,0-9.3,2.7-18.5,2.7c-9.3,0-9.3-2.7-18.5-2.7
					c-9.3,0-9.3,2.7-18.5,2.7c-9.3,0-9.3-2.7-18.5-2.7c-9.3,0-9.3,2.7-18.5,2.7c-9.3,0-9.3-2.7-18.5-2.7c-9.3,0-9.3,2.7-18.5,2.7
					c-9.3,0-9.3-2.7-18.5-2.7c-9.3,0-9.3,2.7-18.5,2.7c-9.3,0-9.3-2.7-18.5-2.7c-9.3,0-9.3,2.7-18.5,2.7
					C360,803.1,362.1,803.9,365.3,803.6z"
          />
        </g>
        <g class="st15">
          <path
            class="st16"
            d="M365.3,834.7c9.1-0.6,7.9-1.8,13.3-1.2c9.2,1.1,9.3,2.7,18.5,2.7c9.3,0,9.3-2.7,18.5-2.7
					c9.3,0,9.3,2.7,18.5,2.7c9.3,0,9.3-2.7,18.5-2.7c9.3,0,9.3,2.7,18.5,2.7c9.3,0,9.3-2.7,18.5-2.7c9.3,0,9.3,2.7,18.5,2.7
					c9.3,0,9.3-2.7,18.5-2.7c9.3,0,9.3,2.7,18.5,2.7c9.3,0,9.3-2.7,18.5-2.7c9.3,0,9.3,2.7,18.5,2.7c5.3,0,8.2-4,12.4-5
					c4.2-1,7.1,0.6,7.1,0.6c-6.9-6.1-10.2,2.3-19.4,2.3c-9.3,0-9.3-2.7-18.5-2.7c-9.3,0-9.3,2.7-18.5,2.7c-9.3,0-9.3-2.7-18.5-2.7
					c-9.3,0-9.3,2.7-18.5,2.7c-9.3,0-9.3-2.7-18.5-2.7c-9.3,0-9.3,2.7-18.5,2.7c-9.3,0-9.3-2.7-18.5-2.7c-9.3,0-9.3,2.7-18.5,2.7
					c-9.3,0-9.3-2.7-18.5-2.7c-9.3,0-9.3,2.7-18.5,2.7c-9.3,0-9.3-2.7-18.5-2.7c-9.3,0-9.3,2.7-18.5,2.7
					C360,834.1,362.1,834.9,365.3,834.7z"
          />
        </g>
        <g class="st15">
          <path
            class="st16"
            d="M365.3,865.7c9.1-0.6,7.9-1.8,13.3-1.2c9.2,1.1,9.3,2.7,18.5,2.7c9.3,0,9.3-2.7,18.5-2.7
					c9.3,0,9.3,2.7,18.5,2.7c9.3,0,9.3-2.7,18.5-2.7c9.3,0,9.3,2.7,18.5,2.7c9.3,0,9.3-2.7,18.5-2.7c9.3,0,9.3,2.7,18.5,2.7
					c9.3,0,9.3-2.7,18.5-2.7c9.3,0,9.3,2.7,18.5,2.7c9.3,0,9.3-2.7,18.5-2.7c9.3,0,9.3,2.7,18.5,2.7c5.3,0,8.2-4,12.4-5
					c4.2-1,7.1,0.6,7.1,0.6c-6.9-6.1-10.2,2.3-19.4,2.3c-9.3,0-9.3-2.7-18.5-2.7c-9.3,0-9.3,2.7-18.5,2.7c-9.3,0-9.3-2.7-18.5-2.7
					c-9.3,0-9.3,2.7-18.5,2.7c-9.3,0-9.3-2.7-18.5-2.7c-9.3,0-9.3,2.7-18.5,2.7c-9.3,0-9.3-2.7-18.5-2.7c-9.3,0-9.3,2.7-18.5,2.7
					c-9.3,0-9.3-2.7-18.5-2.7c-9.3,0-9.3,2.7-18.5,2.7c-9.3,0-9.3-2.7-18.5-2.7c-9.3,0-9.3,2.7-18.5,2.7
					C360,865.2,362.1,865.9,365.3,865.7z"
          />
        </g>
        <g class="st15">
          <path
            class="st16"
            d="M365.3,896.8c9.1-0.6,7.9-1.8,13.3-1.2c9.2,1.1,9.3,2.7,18.5,2.7c9.3,0,9.3-2.7,18.5-2.7
					c9.3,0,9.3,2.7,18.5,2.7c9.3,0,9.3-2.7,18.5-2.7c9.3,0,9.3,2.7,18.5,2.7c9.3,0,9.3-2.7,18.5-2.7c9.3,0,9.3,2.7,18.5,2.7
					c9.3,0,9.3-2.7,18.5-2.7c9.3,0,9.3,2.7,18.5,2.7c9.3,0,9.3-2.7,18.5-2.7c9.3,0,9.3,2.7,18.5,2.7c5.3,0,8.2-4,12.4-5
					c4.2-1,7.1,0.6,7.1,0.6c-6.9-6.1-10.2,2.3-19.4,2.3c-9.3,0-9.3-2.7-18.5-2.7c-9.3,0-9.3,2.7-18.5,2.7c-9.3,0-9.3-2.7-18.5-2.7
					c-9.3,0-9.3,2.7-18.5,2.7c-9.3,0-9.3-2.7-18.5-2.7c-9.3,0-9.3,2.7-18.5,2.7c-9.3,0-9.3-2.7-18.5-2.7c-9.3,0-9.3,2.7-18.5,2.7
					c-9.3,0-9.3-2.7-18.5-2.7c-9.3,0-9.3,2.7-18.5,2.7c-9.3,0-9.3-2.7-18.5-2.7c-9.3,0-9.3,2.7-18.5,2.7
					C360,896.2,362.1,897,365.3,896.8z"
          />
        </g>
        <g class="st15">
          <path
            class="st16"
            d="M365.3,927.8c9.1-0.6,7.9-1.8,13.3-1.2c9.2,1.1,9.3,2.7,18.5,2.7c9.3,0,9.3-2.7,18.5-2.7
					c9.3,0,9.3,2.7,18.5,2.7c9.3,0,9.3-2.7,18.5-2.7c9.3,0,9.3,2.7,18.5,2.7c9.3,0,9.3-2.7,18.5-2.7c9.3,0,9.3,2.7,18.5,2.7
					c9.3,0,9.3-2.7,18.5-2.7c9.3,0,9.3,2.7,18.5,2.7c9.3,0,9.3-2.7,18.5-2.7c9.3,0,9.3,2.7,18.5,2.7c5.3,0,8.2-4,12.4-5
					c4.2-1,7.1,0.6,7.1,0.6c-6.9-6.1-10.2,2.3-19.4,2.3c-9.3,0-9.3-2.7-18.5-2.7c-9.3,0-9.3,2.7-18.5,2.7c-9.3,0-9.3-2.7-18.5-2.7
					c-9.3,0-9.3,2.7-18.5,2.7c-9.3,0-9.3-2.7-18.5-2.7c-9.3,0-9.3,2.7-18.5,2.7c-9.3,0-9.3-2.7-18.5-2.7c-9.3,0-9.3,2.7-18.5,2.7
					c-9.3,0-9.3-2.7-18.5-2.7c-9.3,0-9.3,2.7-18.5,2.7c-9.3,0-9.3-2.7-18.5-2.7c-9.3,0-9.3,2.7-18.5,2.7
					C360,927.2,362.1,928,365.3,927.8z"
          />
        </g>
        <g class="st15">
          <path
            class="st16"
            d="M365.3,958.8c9.1-0.6,7.9-1.8,13.3-1.2c9.2,1.1,9.3,2.7,18.5,2.7c9.3,0,9.3-2.7,18.5-2.7
					c9.3,0,9.3,2.7,18.5,2.7c9.3,0,9.3-2.7,18.5-2.7c9.3,0,9.3,2.7,18.5,2.7c9.3,0,9.3-2.7,18.5-2.7c9.3,0,9.3,2.7,18.5,2.7
					c9.3,0,9.3-2.7,18.5-2.7c9.3,0,9.3,2.7,18.5,2.7c9.3,0,9.3-2.7,18.5-2.7c9.3,0,9.3,2.7,18.5,2.7c5.3,0,8.2-4,12.4-5
					c4.2-1,7.1,0.6,7.1,0.6c-6.9-6.1-10.2,2.3-19.4,2.3c-9.3,0-9.3-2.7-18.5-2.7c-9.3,0-9.3,2.7-18.5,2.7c-9.3,0-9.3-2.7-18.5-2.7
					c-9.3,0-9.3,2.7-18.5,2.7c-9.3,0-9.3-2.7-18.5-2.7c-9.3,0-9.3,2.7-18.5,2.7c-9.3,0-9.3-2.7-18.5-2.7c-9.3,0-9.3,2.7-18.5,2.7
					c-9.3,0-9.3-2.7-18.5-2.7c-9.3,0-9.3,2.7-18.5,2.7c-9.3,0-9.3-2.7-18.5-2.7c-9.3,0-9.3,2.7-18.5,2.7
					C360,958.3,362.1,959,365.3,958.8z"
          />
        </g>
      </g>
      <path
        class="st14"
        d="M27.4,900.5h66.6c0.3,0,0.6,0,1,0l14.5,0c9,0,16.3,7.2,16.3,16.2l0,0.1c0,8.9-7.3,16.2-16.3,16.2L95,933
			c-0.3,0-0.6,0-0.9,0l-29.5,0c-9,0-16.3,7.3-16.3,16.2l0,0.1c0,7.8,5.6,14.3,13,15.8h340.4V782c-0.1,0-0.1,0-0.2,0
			c-3.4,0.5-7.4,0.9-11.3,0.9c-9.4,0-9.4-2.7-18.8-2.7c-9.4,0-9.4,2.7-18.8,2.7c-9.4,0-9.4-2.7-18.8-2.7c-9.4,0-9.4,2.7-18.8,2.7
			c-9.4,0-9.4-2.7-18.8-2.7c-9.4,0-9.4,2.7-18.8,2.7c-9.4,0-9.4-2.7-18.8-2.7c-9.4,0-9.4,2.7-18.8,2.7c-9.4,0-9.4-2.7-18.8-2.7
			c-9.4,0-9.4,2.7-18.8,2.7c-9.4,0-9.4-2.7-18.8-2.7c-9.4,0-9.4,2.7-18.8,2.7c-0.5,0-1,0-1.6,0c-8-0.3-8.5-2.7-17.4-2.7
			c-9.4,0-9.4,2.7-18.8,2.7s-9.4-2.7-18.8-2.7c-9.4,0-9.4,2.7-18.8,2.7c-9.4,0-9.4-2.7-18.8-2.7c-9.4,0-9.4,2.7-18.8,2.7
			c-3.9,0-7.9-0.4-11.3-0.9c-1.6-0.2-3.1,0.2-4.3,1H21.8c-5.2,0-9.4,4.2-9.4,9.3v0.1c0,5.2,4.2,9.3,9.4,9.3h88.9
			c0.6,0,1.2,0.1,1.8,0.2l5.6,0c5.2,0,9.4,4.2,9.4,9.4l0,0.1c0,5.2-4.2,9.3-9.4,9.3l-48.8,0c-4.2,0.9-7.3,4.7-7.3,9.1l0,0.1
			c0,5.2,4.2,9.3,9.4,9.4l76.6,0.1c0.3,0,0.6,0.1,0.9,0.1c5,0,8.7,4.9,8.7,13.1c0,7.7-2.4,15.5-11.6,15.5H27.4
			c-9,0-16.3,7.3-16.3,16.2v0.1C11.1,893.2,18.4,900.5,27.4,900.5z"
      />
      <g>
        <g class="st15">
          <path
            class="st16"
            d="M393.3,803.7c-9.1-0.6-7.9-1.8-13.3-1.2c-9.2,1.1-9.3,2.7-18.5,2.7c-9.3,0-9.3-2.7-18.5-2.7
					c-9.3,0-9.3,2.7-18.5,2.7c-9.3,0-9.3-2.7-18.5-2.7c-9.3,0-9.3,2.7-18.5,2.7c-9.3,0-9.3-2.7-18.5-2.7c-9.3,0-9.3,2.7-18.5,2.7
					c-9.3,0-9.3-2.7-18.5-2.7c-9.3,0-9.3,2.7-18.5,2.7c-9.3,0-9.3-2.7-18.5-2.7c-9.3,0-9.3,2.7-18.5,2.7c-5.3,0-8.2-4-12.4-5
					c-4.2-1-7.1,0.6-7.1,0.6c6.9-6.1,10.2,2.3,19.4,2.3s9.3-2.7,18.5-2.7c9.3,0,9.3,2.7,18.5,2.7c9.3,0,9.3-2.7,18.5-2.7
					c9.3,0,9.3,2.7,18.5,2.7c9.3,0,9.3-2.7,18.5-2.7c9.3,0,9.3,2.7,18.5,2.7c9.3,0,9.3-2.7,18.5-2.7c9.3,0,9.3,2.7,18.5,2.7
					c9.3,0,9.3-2.7,18.5-2.7c9.3,0,9.3,2.7,18.5,2.7c9.3,0,9.3-2.7,18.5-2.7c9.3,0,9.3,2.7,18.5,2.7
					C398.6,803.2,396.5,804,393.3,803.7z"
          />
        </g>
        <g class="st15">
          <path
            class="st16"
            d="M393.3,834.8c-9.1-0.6-7.9-1.8-13.3-1.2c-9.2,1.1-9.3,2.7-18.5,2.7c-9.3,0-9.3-2.7-18.5-2.7
					c-9.3,0-9.3,2.7-18.5,2.7c-9.3,0-9.3-2.7-18.5-2.7c-9.3,0-9.3,2.7-18.5,2.7c-9.3,0-9.3-2.7-18.5-2.7c-9.3,0-9.3,2.7-18.5,2.7
					c-9.3,0-9.3-2.7-18.5-2.7c-9.3,0-9.3,2.7-18.5,2.7c-9.3,0-9.3-2.7-18.5-2.7c-9.3,0-9.3,2.7-18.5,2.7c-5.3,0-8.2-4-12.4-5
					c-4.2-1-7.1,0.6-7.1,0.6c6.9-6.1,10.2,2.3,19.4,2.3s9.3-2.7,18.5-2.7c9.3,0,9.3,2.7,18.5,2.7c9.3,0,9.3-2.7,18.5-2.7
					c9.3,0,9.3,2.7,18.5,2.7c9.3,0,9.3-2.7,18.5-2.7c9.3,0,9.3,2.7,18.5,2.7c9.3,0,9.3-2.7,18.5-2.7c9.3,0,9.3,2.7,18.5,2.7
					c9.3,0,9.3-2.7,18.5-2.7c9.3,0,9.3,2.7,18.5,2.7c9.3,0,9.3-2.7,18.5-2.7c9.3,0,9.3,2.7,18.5,2.7
					C398.6,834.2,396.5,835,393.3,834.8z"
          />
        </g>
        <g class="st15">
          <path
            class="st16"
            d="M393.3,865.8c-9.1-0.6-7.9-1.8-13.3-1.2c-9.2,1.1-9.3,2.7-18.5,2.7c-9.3,0-9.3-2.7-18.5-2.7
					c-9.3,0-9.3,2.7-18.5,2.7c-9.3,0-9.3-2.7-18.5-2.7c-9.3,0-9.3,2.7-18.5,2.7c-9.3,0-9.3-2.7-18.5-2.7c-9.3,0-9.3,2.7-18.5,2.7
					c-9.3,0-9.3-2.7-18.5-2.7c-9.3,0-9.3,2.7-18.5,2.7c-9.3,0-9.3-2.7-18.5-2.7c-9.3,0-9.3,2.7-18.5,2.7c-5.3,0-8.2-4-12.4-5
					c-4.2-1-7.1,0.6-7.1,0.6c6.9-6.1,10.2,2.3,19.4,2.3s9.3-2.7,18.5-2.7c9.3,0,9.3,2.7,18.5,2.7c9.3,0,9.3-2.7,18.5-2.7
					c9.3,0,9.3,2.7,18.5,2.7c9.3,0,9.3-2.7,18.5-2.7c9.3,0,9.3,2.7,18.5,2.7c9.3,0,9.3-2.7,18.5-2.7c9.3,0,9.3,2.7,18.5,2.7
					c9.3,0,9.3-2.7,18.5-2.7c9.3,0,9.3,2.7,18.5,2.7c9.3,0,9.3-2.7,18.5-2.7c9.3,0,9.3,2.7,18.5,2.7
					C398.6,865.3,396.5,866,393.3,865.8z"
          />
        </g>
        <g class="st15">
          <path
            class="st16"
            d="M393.3,896.9c-9.1-0.6-7.9-1.8-13.3-1.2c-9.2,1.1-9.3,2.7-18.5,2.7c-9.3,0-9.3-2.7-18.5-2.7
					c-9.3,0-9.3,2.7-18.5,2.7c-9.3,0-9.3-2.7-18.5-2.7c-9.3,0-9.3,2.7-18.5,2.7c-9.3,0-9.3-2.7-18.5-2.7c-9.3,0-9.3,2.7-18.5,2.7
					c-9.3,0-9.3-2.7-18.5-2.7c-9.3,0-9.3,2.7-18.5,2.7c-9.3,0-9.3-2.7-18.5-2.7c-9.3,0-9.3,2.7-18.5,2.7c-5.3,0-8.2-4-12.4-5
					c-4.2-1-7.1,0.6-7.1,0.6c6.9-6.1,10.2,2.3,19.4,2.3s9.3-2.7,18.5-2.7c9.3,0,9.3,2.7,18.5,2.7c9.3,0,9.3-2.7,18.5-2.7
					c9.3,0,9.3,2.7,18.5,2.7c9.3,0,9.3-2.7,18.5-2.7c9.3,0,9.3,2.7,18.5,2.7c9.3,0,9.3-2.7,18.5-2.7c9.3,0,9.3,2.7,18.5,2.7
					c9.3,0,9.3-2.7,18.5-2.7c9.3,0,9.3,2.7,18.5,2.7c9.3,0,9.3-2.7,18.5-2.7c9.3,0,9.3,2.7,18.5,2.7
					C398.6,896.3,396.5,897.1,393.3,896.9z"
          />
        </g>
        <g class="st15">
          <path
            class="st16"
            d="M393.3,927.9c-9.1-0.6-7.9-1.8-13.3-1.2c-9.2,1.1-9.3,2.7-18.5,2.7c-9.3,0-9.3-2.7-18.5-2.7
					c-9.3,0-9.3,2.7-18.5,2.7c-9.3,0-9.3-2.7-18.5-2.7c-9.3,0-9.3,2.7-18.5,2.7c-9.3,0-9.3-2.7-18.5-2.7c-9.3,0-9.3,2.7-18.5,2.7
					c-9.3,0-9.3-2.7-18.5-2.7c-9.3,0-9.3,2.7-18.5,2.7c-9.3,0-9.3-2.7-18.5-2.7c-9.3,0-9.3,2.7-18.5,2.7c-5.3,0-8.2-4-12.4-5
					c-4.2-1-7.1,0.6-7.1,0.6c6.9-6.1,10.2,2.3,19.4,2.3s9.3-2.7,18.5-2.7c9.3,0,9.3,2.7,18.5,2.7c9.3,0,9.3-2.7,18.5-2.7
					c9.3,0,9.3,2.7,18.5,2.7c9.3,0,9.3-2.7,18.5-2.7c9.3,0,9.3,2.7,18.5,2.7c9.3,0,9.3-2.7,18.5-2.7c9.3,0,9.3,2.7,18.5,2.7
					c9.3,0,9.3-2.7,18.5-2.7c9.3,0,9.3,2.7,18.5,2.7c9.3,0,9.3-2.7,18.5-2.7c9.3,0,9.3,2.7,18.5,2.7
					C398.6,927.3,396.5,928.1,393.3,927.9z"
          />
        </g>
        <g class="st15">
          <path
            class="st16"
            d="M393.3,958.9c-9.1-0.6-7.9-1.8-13.3-1.2c-9.2,1.1-9.3,2.7-18.5,2.7c-9.3,0-9.3-2.7-18.5-2.7
					c-9.3,0-9.3,2.7-18.5,2.7c-9.3,0-9.3-2.7-18.5-2.7c-9.3,0-9.3,2.7-18.5,2.7c-9.3,0-9.3-2.7-18.5-2.7c-9.3,0-9.3,2.7-18.5,2.7
					c-9.3,0-9.3-2.7-18.5-2.7c-9.3,0-9.3,2.7-18.5,2.7c-9.3,0-9.3-2.7-18.5-2.7c-9.3,0-9.3,2.7-18.5,2.7c-5.3,0-8.2-4-12.4-5
					c-4.2-1-7.1,0.6-7.1,0.6c6.9-6.1,10.2,2.3,19.4,2.3s9.3-2.7,18.5-2.7c9.3,0,9.3,2.7,18.5,2.7c9.3,0,9.3-2.7,18.5-2.7
					c9.3,0,9.3,2.7,18.5,2.7c9.3,0,9.3-2.7,18.5-2.7c9.3,0,9.3,2.7,18.5,2.7c9.3,0,9.3-2.7,18.5-2.7c9.3,0,9.3,2.7,18.5,2.7
					c9.3,0,9.3-2.7,18.5-2.7c9.3,0,9.3,2.7,18.5,2.7c9.3,0,9.3-2.7,18.5-2.7c9.3,0,9.3,2.7,18.5,2.7
					C398.6,958.4,396.5,959.1,393.3,958.9z"
          />
        </g>
      </g>
      <g>
        <g>
          <g>
            <path
              class="st17"
              d="M500,945.6c0-0.1,0-0.1,0-0.2l0.1,0L500,945.6z"
            />
          </g>
        </g>
      </g>
      <g>
        <g>
          <g>
            <g>
              <g>
                <circle class="st18" cx="587.6" cy="928.3" r="1" />
              </g>
              <g>
                <path
                  class="st19"
                  d="M587.9,927.7C587.9,927.7,587.9,927.7,587.9,927.7c0.1,0,0.1,0,0.1,0c0,0,0.1,0,0.1,0
								c0,0,0.1,0,0.1,0.1c0,0,0.1,0.1,0.1,0.1c0,0,0.1,0.1,0.1,0.1c0,0,0,0.1,0,0.2c0,0.1,0,0.1,0,0.2c0,0.1,0,0.1-0.1,0.1
								c0,0,0,0.1-0.1,0.1c0,0-0.1,0.1-0.1,0.1c-0.1,0-0.1,0.1-0.2,0.1c0,0-0.1,0-0.1,0s0,0,0-0.1c0,0,0.1-0.1,0.1-0.1
								c0,0,0-0.1,0-0.1c0,0,0-0.1,0-0.1c0,0,0-0.1,0-0.1c0,0,0-0.1,0-0.1c0-0.1,0-0.1,0-0.2c0,0,0-0.1,0-0.1c0,0,0-0.1,0-0.1
								c0,0,0-0.1,0-0.1C587.9,927.8,587.9,927.7,587.9,927.7C587.9,927.7,587.9,927.7,587.9,927.7z"
                />
              </g>
            </g>
            <g>
              <g>
                <circle class="st18" cx="587.7" cy="911.1" r="1" />
              </g>
              <g>
                <path
                  class="st19"
                  d="M588,910.5C588,910.5,588,910.5,588,910.5c0.1,0,0.1,0,0.1,0c0,0,0.1,0,0.1,0c0,0,0.1,0,0.1,0.1
								c0,0,0.1,0.1,0.1,0.1c0,0,0.1,0.1,0.1,0.1c0,0,0,0.1,0,0.2c0,0.1,0,0.1,0,0.2c0,0.1,0,0.1-0.1,0.1c0,0,0,0.1-0.1,0.1
								c0,0-0.1,0.1-0.1,0.1c-0.1,0-0.1,0.1-0.2,0.1c0,0-0.1,0-0.1,0s0,0,0-0.1c0,0,0.1-0.1,0.1-0.1c0,0,0-0.1,0-0.1
								c0,0,0-0.1,0-0.1c0,0,0-0.1,0-0.1c0,0,0-0.1,0-0.1c0-0.1,0-0.1,0-0.2c0,0,0-0.1,0-0.1c0,0,0-0.1,0-0.1c0,0,0-0.1,0-0.1
								C588.1,910.6,588.1,910.6,588,910.5C588,910.5,588,910.5,588,910.5z"
                />
              </g>
            </g>
            <g>
              <g>
                <circle class="st18" cx="596.6" cy="938.8" r="1" />
              </g>
              <g>
                <path
                  class="st19"
                  d="M596.9,938.2C596.9,938.2,597,938.2,596.9,938.2c0.1,0,0.1,0,0.1,0c0,0,0.1,0,0.1,0c0,0,0.1,0,0.1,0.1
								c0,0,0.1,0.1,0.1,0.1c0,0,0.1,0.1,0.1,0.1c0,0,0,0.1,0,0.2c0,0.1,0,0.1,0,0.2c0,0.1,0,0.1-0.1,0.1c0,0,0,0.1-0.1,0.1
								c0,0-0.1,0.1-0.1,0.1c-0.1,0-0.1,0.1-0.2,0.1c0,0-0.1,0-0.1,0s0,0,0-0.1c0,0,0.1-0.1,0.1-0.1c0,0,0-0.1,0-0.1
								c0,0,0-0.1,0-0.1c0,0,0-0.1,0-0.1c0,0,0-0.1,0-0.1c0-0.1,0-0.1,0-0.2c0,0,0-0.1,0-0.1c0,0,0-0.1,0-0.1c0,0,0-0.1,0-0.1
								C597,938.3,597,938.3,596.9,938.2C596.9,938.2,596.9,938.2,596.9,938.2z"
                />
              </g>
            </g>
            <g>
              <g>
                <circle class="st18" cx="594.8" cy="922.5" r="1" />
              </g>
              <g>
                <path
                  class="st19"
                  d="M595.1,921.9C595.1,921.9,595.1,921.9,595.1,921.9c0.1,0,0.1,0,0.1,0c0,0,0.1,0,0.1,0
								c0,0,0.1,0,0.1,0.1c0,0,0.1,0.1,0.1,0.1c0,0,0.1,0.1,0.1,0.1c0,0,0,0.1,0,0.2c0,0.1,0,0.1,0,0.2c0,0.1,0,0.1-0.1,0.1
								c0,0,0,0.1-0.1,0.1c0,0-0.1,0.1-0.1,0.1c-0.1,0-0.1,0.1-0.2,0.1c0,0-0.1,0-0.1,0s0,0,0-0.1c0,0,0.1-0.1,0.1-0.1
								c0,0,0-0.1,0-0.1c0,0,0-0.1,0-0.1c0,0,0-0.1,0-0.1c0,0,0-0.1,0-0.1c0-0.1,0-0.1,0-0.2c0,0,0-0.1,0-0.1c0,0,0-0.1,0-0.1
								c0,0,0-0.1,0-0.1C595.2,922,595.1,922,595.1,921.9C595.1,921.9,595.1,921.9,595.1,921.9z"
                />
              </g>
            </g>
            <g>
              <g>
                <circle class="st18" cx="605.7" cy="909" r="1" />
              </g>
              <g>
                <path
                  class="st19"
                  d="M606,908.4C606,908.4,606,908.4,606,908.4c0.1,0,0.1,0,0.1,0c0,0,0.1,0,0.1,0c0,0,0.1,0,0.1,0.1
								c0,0,0.1,0.1,0.1,0.1c0,0,0.1,0.1,0.1,0.1c0,0,0,0.1,0,0.2c0,0.1,0,0.1,0,0.2c0,0.1,0,0.1-0.1,0.1c0,0,0,0.1-0.1,0.1
								c0,0-0.1,0.1-0.1,0.1c-0.1,0-0.1,0.1-0.2,0.1c0,0-0.1,0-0.1,0s0,0,0-0.1c0,0,0.1-0.1,0.1-0.1c0,0,0-0.1,0-0.1
								c0,0,0-0.1,0-0.1c0,0,0-0.1,0-0.1c0,0,0-0.1,0-0.1c0-0.1,0-0.1,0-0.2c0,0,0-0.1,0-0.1c0,0,0-0.1,0-0.1c0,0,0-0.1,0-0.1
								C606,908.5,606,908.5,606,908.4C606,908.4,606,908.4,606,908.4z"
                />
              </g>
            </g>
            <g>
              <g>
                <circle class="st18" cx="598.6" cy="897.6" r="1" />
              </g>
              <g>
                <path
                  class="st19"
                  d="M598.9,896.9C598.9,896.9,598.9,896.9,598.9,896.9c0.1,0,0.1,0,0.1,0c0,0,0.1,0,0.1,0
								c0,0,0.1,0,0.1,0.1c0,0,0.1,0.1,0.1,0.1c0,0,0.1,0.1,0.1,0.1c0,0,0,0.1,0,0.2c0,0.1,0,0.1,0,0.2c0,0.1,0,0.1-0.1,0.1
								c0,0,0,0.1-0.1,0.1c0,0-0.1,0.1-0.1,0.1c-0.1,0-0.1,0.1-0.2,0.1c0,0-0.1,0-0.1,0s0,0,0-0.1c0,0,0.1-0.1,0.1-0.1
								c0,0,0-0.1,0-0.1c0,0,0-0.1,0-0.1c0,0,0-0.1,0-0.1c0,0,0-0.1,0-0.1c0-0.1,0-0.1,0-0.2c0,0,0-0.1,0-0.1c0,0,0-0.1,0-0.1
								c0,0,0-0.1,0-0.1C598.9,897,598.9,897,598.9,896.9C598.9,897,598.9,896.9,598.9,896.9z"
                />
              </g>
            </g>
          </g>
          <g>
            <g>
              <g>
                <circle class="st18" cx="412.2" cy="932" r="1" />
              </g>
              <g>
                <path
                  class="st19"
                  d="M412.5,931.4C412.5,931.4,412.5,931.4,412.5,931.4c0.1,0,0.1,0,0.1,0c0,0,0.1,0,0.1,0
								c0,0,0.1,0,0.1,0.1c0,0,0.1,0.1,0.1,0.1c0,0,0.1,0.1,0.1,0.1c0,0,0,0.1,0,0.2c0,0.1,0,0.1,0,0.2c0,0.1,0,0.1-0.1,0.1
								c0,0,0,0.1-0.1,0.1c0,0-0.1,0.1-0.1,0.1c-0.1,0-0.1,0.1-0.2,0.1c0,0-0.1,0-0.1,0s0,0,0-0.1c0,0,0.1-0.1,0.1-0.1
								c0,0,0-0.1,0-0.1c0,0,0-0.1,0-0.1c0,0,0-0.1,0-0.1c0,0,0-0.1,0-0.1c0-0.1,0-0.1,0-0.2c0,0,0-0.1,0-0.1c0,0,0-0.1,0-0.1
								c0,0,0-0.1,0-0.1C412.6,931.5,412.6,931.5,412.5,931.4C412.5,931.4,412.5,931.4,412.5,931.4z"
                />
              </g>
            </g>
            <g>
              <g>
                <circle class="st18" cx="421.1" cy="959.8" r="1" />
              </g>
              <g>
                <path
                  class="st19"
                  d="M421.4,959.1C421.4,959.1,421.4,959.1,421.4,959.1c0.1,0,0.1,0,0.1,0c0,0,0.1,0,0.1,0
								c0,0,0.1,0,0.1,0.1c0,0,0.1,0.1,0.1,0.1c0,0,0.1,0.1,0.1,0.1c0,0,0,0.1,0,0.2c0,0.1,0,0.1,0,0.2c0,0.1,0,0.1-0.1,0.1
								c0,0,0,0.1-0.1,0.1c0,0-0.1,0.1-0.1,0.1c-0.1,0-0.1,0.1-0.2,0.1c0,0-0.1,0-0.1,0s0,0,0-0.1c0,0,0.1-0.1,0.1-0.1
								c0,0,0-0.1,0-0.1c0,0,0-0.1,0-0.1c0,0,0-0.1,0-0.1c0,0,0-0.1,0-0.1c0-0.1,0-0.1,0-0.2c0,0,0-0.1,0-0.1c0,0,0-0.1,0-0.1
								c0,0,0-0.1,0-0.1C421.5,959.2,421.5,959.2,421.4,959.1C421.4,959.2,421.4,959.1,421.4,959.1z"
                />
              </g>
            </g>
            <g>
              <g>
                <circle class="st18" cx="419.3" cy="943.5" r="1" />
              </g>
              <g>
                <path
                  class="st19"
                  d="M419.6,942.8C419.6,942.8,419.6,942.8,419.6,942.8c0.1,0,0.1,0,0.1,0c0,0,0.1,0,0.1,0
								c0,0,0.1,0,0.1,0.1c0,0,0.1,0.1,0.1,0.1c0,0,0.1,0.1,0.1,0.1c0,0,0,0.1,0,0.2c0,0.1,0,0.1,0,0.2c0,0.1,0,0.1-0.1,0.1
								c0,0,0,0.1-0.1,0.1c0,0-0.1,0.1-0.1,0.1c-0.1,0-0.1,0.1-0.2,0.1c0,0-0.1,0-0.1,0s0,0,0-0.1c0,0,0.1-0.1,0.1-0.1
								c0,0,0-0.1,0-0.1c0,0,0-0.1,0-0.1c0,0,0-0.1,0-0.1c0,0,0-0.1,0-0.1c0-0.1,0-0.1,0-0.2c0,0,0-0.1,0-0.1c0,0,0-0.1,0-0.1
								c0,0,0-0.1,0-0.1C419.6,942.9,419.6,942.9,419.6,942.8C419.6,942.9,419.6,942.8,419.6,942.8z"
                />
              </g>
            </g>
            <g>
              <g>
                <circle class="st18" cx="423.1" cy="918.5" r="1" />
              </g>
              <g>
                <path
                  class="st19"
                  d="M423.4,917.9C423.4,917.9,423.4,917.9,423.4,917.9c0.1,0,0.1,0,0.1,0c0,0,0.1,0,0.1,0
								c0,0,0.1,0,0.1,0.1c0,0,0.1,0.1,0.1,0.1c0,0,0.1,0.1,0.1,0.1c0,0,0,0.1,0,0.2c0,0.1,0,0.1,0,0.2c0,0.1,0,0.1-0.1,0.1
								c0,0,0,0.1-0.1,0.1c0,0-0.1,0.1-0.1,0.1c-0.1,0-0.1,0.1-0.2,0.1c0,0-0.1,0-0.1,0s0,0,0-0.1c0,0,0.1-0.1,0.1-0.1
								c0,0,0-0.1,0-0.1c0,0,0-0.1,0-0.1c0,0,0-0.1,0-0.1c0,0,0-0.1,0-0.1c0-0.1,0-0.1,0-0.2c0,0,0-0.1,0-0.1c0,0,0-0.1,0-0.1
								c0,0,0-0.1,0-0.1C423.4,918,423.4,917.9,423.4,917.9C423.4,917.9,423.4,917.9,423.4,917.9z"
                />
              </g>
            </g>
          </g>
          <g>
            <g>
              <g>
                <circle class="st18" cx="588.4" cy="873.5" r="0.7" />
              </g>
              <g>
                <path
                  class="st19"
                  d="M588.6,873.1C588.6,873.1,588.6,873.1,588.6,873.1c0.1,0,0.1,0,0.1,0c0,0,0,0,0.1,0c0,0,0,0,0.1,0.1
								c0,0,0,0.1,0.1,0.1c0,0,0,0.1,0,0.1c0,0,0,0.1,0,0.1c0,0,0,0.1,0,0.1c0,0,0,0.1,0,0.1c0,0,0,0.1-0.1,0.1c0,0,0,0-0.1,0.1
								c0,0-0.1,0-0.1,0c0,0,0,0,0,0s0,0,0,0c0,0,0-0.1,0.1-0.1c0,0,0,0,0-0.1c0,0,0,0,0-0.1c0,0,0,0,0-0.1c0,0,0,0,0-0.1
								c0,0,0-0.1,0-0.1c0,0,0,0,0-0.1c0,0,0,0,0-0.1C588.7,873.2,588.7,873.2,588.6,873.1C588.6,873.1,588.6,873.1,588.6,873.1
								C588.6,873.1,588.6,873.1,588.6,873.1z"
                />
              </g>
            </g>
            <g>
              <g>
                <circle class="st18" cx="577.4" cy="863.9" r="0.7" />
              </g>
              <g>
                <path
                  class="st19"
                  d="M577.7,863.5C577.7,863.5,577.7,863.5,577.7,863.5c0.1,0,0.1,0,0.1,0c0,0,0,0,0.1,0c0,0,0,0,0.1,0.1
								c0,0,0,0.1,0.1,0.1c0,0,0,0.1,0,0.1c0,0,0,0.1,0,0.1c0,0,0,0.1,0,0.1c0,0,0,0.1,0,0.1c0,0,0,0.1-0.1,0.1c0,0,0,0-0.1,0.1
								c0,0-0.1,0-0.1,0c0,0,0,0,0,0s0,0,0,0c0,0,0-0.1,0.1-0.1c0,0,0,0,0-0.1c0,0,0,0,0-0.1c0,0,0,0,0-0.1c0,0,0,0,0-0.1
								c0,0,0-0.1,0-0.1c0,0,0,0,0-0.1c0,0,0,0,0-0.1C577.7,863.6,577.7,863.6,577.7,863.5C577.7,863.5,577.7,863.5,577.7,863.5
								C577.7,863.5,577.7,863.5,577.7,863.5z"
                />
              </g>
            </g>
            <g>
              <g>
                <ellipse class="st18" cx="574.8" cy="842.2" rx="2.6" ry="2.6" />
              </g>
              <g>
                <path
                  class="st19"
                  d="M575.6,840.5c0,0,0.1,0,0.2,0c0.1,0,0.1,0,0.2,0.1c0.1,0,0.2,0,0.2,0.1c0.1,0.1,0.2,0.1,0.3,0.2
								c0.1,0.1,0.2,0.2,0.2,0.3c0.1,0.1,0.1,0.2,0.2,0.4c0,0.1,0,0.3,0.1,0.4c0,0.1,0,0.3-0.1,0.4c0,0.1-0.1,0.3-0.2,0.4
								c-0.1,0.1-0.1,0.2-0.2,0.3c-0.1,0.1-0.2,0.1-0.2,0.2c-0.1,0.1-0.3,0.1-0.4,0.2c-0.1,0-0.2,0-0.2,0s0-0.1,0.1-0.2
								c0-0.1,0.1-0.2,0.2-0.3c0-0.1,0.1-0.2,0.1-0.2c0-0.1,0-0.2,0.1-0.2c0-0.1,0.1-0.2,0.1-0.3c0-0.1,0-0.2,0-0.3
								c0-0.2,0-0.3-0.1-0.5c0-0.1,0-0.2-0.1-0.2c0-0.1-0.1-0.1-0.1-0.2c0-0.1-0.1-0.1-0.1-0.2c0-0.1-0.1-0.1-0.1-0.2
								C575.6,840.6,575.6,840.5,575.6,840.5z"
                />
              </g>
            </g>
            <g>
              <g>
                <ellipse class="st18" cx="584.5" cy="818.6" rx="1.8" ry="1.8" />
              </g>
              <g>
                <path
                  class="st19"
                  d="M585.1,817.4c0,0,0,0,0.1,0c0,0,0.1,0,0.1,0c0,0,0.1,0,0.2,0.1c0.1,0,0.1,0.1,0.2,0.2
								c0.1,0.1,0.1,0.1,0.2,0.2c0,0.1,0.1,0.2,0.1,0.3c0,0.1,0,0.2,0,0.3c0,0.1,0,0.2,0,0.3c0,0.1-0.1,0.2-0.1,0.3
								c0,0.1-0.1,0.2-0.2,0.2c-0.1,0.1-0.1,0.1-0.2,0.1c-0.1,0.1-0.2,0.1-0.3,0.1c-0.1,0-0.1,0-0.1,0s0,0,0.1-0.1
								c0-0.1,0.1-0.1,0.1-0.2c0-0.1,0-0.1,0.1-0.2c0,0,0-0.1,0.1-0.2c0-0.1,0-0.1,0-0.2c0-0.1,0-0.1,0-0.2c0-0.1,0-0.3-0.1-0.4
								c0-0.1,0-0.1-0.1-0.2c0-0.1,0-0.1-0.1-0.2c0-0.1-0.1-0.1-0.1-0.1c0,0-0.1-0.1-0.1-0.1C585.1,817.5,585.1,817.4,585.1,817.4z"
                />
              </g>
            </g>
            <g>
              <g>
                <ellipse class="st18" cx="601.7" cy="861.3" rx="1.3" ry="1.3" />
              </g>
              <g>
                <path
                  class="st19"
                  d="M602.1,860.4C602.1,860.4,602.1,860.4,602.1,860.4c0.1,0,0.1,0,0.2,0c0,0,0.1,0,0.1,0
								c0,0,0.1,0.1,0.1,0.1c0,0,0.1,0.1,0.1,0.1c0,0.1,0.1,0.1,0.1,0.2c0,0.1,0,0.1,0,0.2c0,0.1,0,0.1,0,0.2c0,0.1,0,0.1-0.1,0.2
								c0,0.1-0.1,0.1-0.1,0.1c0,0-0.1,0.1-0.1,0.1c-0.1,0.1-0.2,0.1-0.2,0.1c-0.1,0-0.1,0-0.1,0s0,0,0-0.1c0,0,0.1-0.1,0.1-0.2
								c0,0,0-0.1,0-0.1c0,0,0-0.1,0-0.1c0,0,0-0.1,0-0.1c0,0,0-0.1,0-0.1c0-0.1,0-0.2,0-0.3c0,0,0-0.1,0-0.1c0,0,0-0.1,0-0.1
								c0,0,0-0.1-0.1-0.1C602.2,860.6,602.2,860.5,602.1,860.4C602.1,860.5,602.1,860.4,602.1,860.4z"
                />
              </g>
            </g>
            <g>
              <g>
                <circle class="st18" cx="596.6" cy="850.2" r="0.9" />
              </g>
              <g>
                <path
                  class="st19"
                  d="M596.8,849.6C596.8,849.6,596.9,849.6,596.8,849.6c0.1,0,0.1,0,0.1,0c0,0,0.1,0,0.1,0
								c0,0,0.1,0,0.1,0.1c0,0,0.1,0.1,0.1,0.1c0,0,0,0.1,0.1,0.1c0,0,0,0.1,0,0.1c0,0,0,0.1,0,0.1c0,0,0,0.1-0.1,0.1
								c0,0,0,0.1-0.1,0.1c0,0-0.1,0-0.1,0.1c0,0-0.1,0-0.1,0.1c0,0-0.1,0-0.1,0s0,0,0-0.1c0,0,0-0.1,0.1-0.1c0,0,0-0.1,0-0.1
								c0,0,0-0.1,0-0.1c0,0,0-0.1,0-0.1c0,0,0-0.1,0-0.1c0-0.1,0-0.1,0-0.2c0,0,0-0.1,0-0.1c0,0,0,0,0-0.1c0,0,0,0,0-0.1
								C596.9,849.7,596.9,849.7,596.8,849.6C596.9,849.6,596.8,849.6,596.8,849.6z"
                />
              </g>
            </g>
            <g>
              <g>
                <ellipse class="st18" cx="599.9" cy="822.3" rx="1.3" ry="1.3" />
              </g>
              <g>
                <path
                  class="st19"
                  d="M600.4,821.5C600.4,821.5,600.4,821.5,600.4,821.5c0.1,0,0.1,0,0.2,0c0,0,0.1,0,0.1,0
								c0,0,0.1,0.1,0.1,0.1c0,0,0.1,0.1,0.1,0.1c0,0.1,0.1,0.1,0.1,0.2c0,0.1,0,0.1,0,0.2c0,0.1,0,0.1,0,0.2c0,0.1,0,0.1-0.1,0.2
								c0,0.1-0.1,0.1-0.1,0.1c0,0-0.1,0.1-0.1,0.1c-0.1,0.1-0.2,0.1-0.2,0.1c-0.1,0-0.1,0-0.1,0s0,0,0-0.1c0,0,0.1-0.1,0.1-0.2
								c0,0,0-0.1,0-0.1c0,0,0-0.1,0-0.1c0,0,0-0.1,0-0.1c0,0,0-0.1,0-0.1c0-0.1,0-0.2,0-0.3c0,0,0-0.1,0-0.1c0,0,0-0.1,0-0.1
								c0,0,0-0.1-0.1-0.1C600.4,821.6,600.4,821.6,600.4,821.5C600.4,821.5,600.4,821.5,600.4,821.5z"
                />
              </g>
            </g>
            <g>
              <g>
                <circle class="st18" cx="564.4" cy="866.7" r="0.7" />
              </g>
              <g>
                <path
                  class="st19"
                  d="M564.6,866.3C564.6,866.3,564.6,866.3,564.6,866.3c0.1,0,0.1,0,0.1,0c0,0,0,0,0.1,0c0,0,0,0,0.1,0.1
								c0,0,0,0.1,0.1,0.1c0,0,0,0.1,0,0.1c0,0,0,0.1,0,0.1c0,0,0,0.1,0,0.1c0,0,0,0.1,0,0.1c0,0,0,0.1-0.1,0.1c0,0,0,0-0.1,0.1
								c0,0-0.1,0-0.1,0c0,0,0,0,0,0s0,0,0,0c0,0,0-0.1,0.1-0.1c0,0,0,0,0-0.1c0,0,0,0,0-0.1c0,0,0,0,0-0.1c0,0,0,0,0-0.1
								c0,0,0-0.1,0-0.1c0,0,0,0,0-0.1c0,0,0,0,0-0.1C564.7,866.4,564.6,866.4,564.6,866.3C564.6,866.3,564.6,866.3,564.6,866.3
								C564.6,866.3,564.6,866.3,564.6,866.3z"
                />
              </g>
            </g>
            <g>
              <g>
                <circle class="st18" cx="565.8" cy="852.6" r="0.8" />
              </g>
              <g>
                <path
                  class="st19"
                  d="M566,852.1C566,852.1,566.1,852.1,566,852.1c0.1,0,0.1,0,0.1,0c0,0,0.1,0,0.1,0c0,0,0.1,0,0.1,0.1
								c0,0,0.1,0.1,0.1,0.1c0,0,0,0.1,0.1,0.1c0,0,0,0.1,0,0.1c0,0,0,0.1,0,0.1c0,0,0,0.1,0,0.1c0,0,0,0.1-0.1,0.1
								c0,0-0.1,0-0.1,0.1c0,0-0.1,0-0.1,0.1c0,0-0.1,0-0.1,0s0,0,0,0c0,0,0-0.1,0.1-0.1c0,0,0,0,0-0.1c0,0,0-0.1,0-0.1
								c0,0,0-0.1,0-0.1c0,0,0-0.1,0-0.1c0-0.1,0-0.1,0-0.2c0,0,0-0.1,0-0.1c0,0,0,0,0-0.1c0,0,0,0,0-0.1
								C566.1,852.1,566.1,852.1,566,852.1C566.1,852.1,566,852.1,566,852.1z"
                />
              </g>
            </g>
            <g>
              <g>
                <circle class="st18" cx="561.1" cy="835.2" r="0.8" />
              </g>
              <g>
                <path
                  class="st19"
                  d="M561.3,834.7C561.3,834.7,561.3,834.7,561.3,834.7c0.1,0,0.1,0,0.1,0c0,0,0,0,0.1,0c0,0,0,0,0.1,0.1
								c0,0,0.1,0.1,0.1,0.1c0,0,0,0.1,0,0.1c0,0,0,0.1,0,0.1c0,0,0,0.1,0,0.1c0,0,0,0.1,0,0.1c0,0,0,0.1-0.1,0.1c0,0-0.1,0-0.1,0.1
								c0,0-0.1,0-0.1,0.1c0,0,0,0,0,0s0,0,0,0c0,0,0-0.1,0.1-0.1c0,0,0,0,0-0.1c0,0,0-0.1,0-0.1c0,0,0,0,0-0.1c0,0,0-0.1,0-0.1
								c0-0.1,0-0.1,0-0.2c0,0,0-0.1,0-0.1c0,0,0,0,0-0.1C561.4,834.8,561.4,834.8,561.3,834.7C561.4,834.8,561.4,834.8,561.3,834.7
								C561.3,834.7,561.3,834.7,561.3,834.7z"
                />
              </g>
            </g>
            <g>
              <g>
                <ellipse class="st18" cx="563.9" cy="817.8" rx="2.6" ry="2.6" />
              </g>
              <g>
                <path
                  class="st19"
                  d="M564.7,816.2c0,0,0.1,0,0.2,0c0.1,0,0.1,0,0.2,0.1c0.1,0,0.2,0,0.2,0.1c0.1,0.1,0.2,0.1,0.3,0.2
								c0.1,0.1,0.2,0.2,0.2,0.3c0.1,0.1,0.1,0.2,0.2,0.4c0,0.1,0,0.3,0.1,0.4c0,0.1,0,0.3-0.1,0.4c0,0.1-0.1,0.3-0.2,0.4
								c-0.1,0.1-0.1,0.2-0.2,0.3c-0.1,0.1-0.2,0.2-0.3,0.2c-0.2,0.1-0.3,0.1-0.4,0.2c-0.1,0-0.2,0-0.2,0s0-0.1,0.1-0.2
								c0-0.1,0.1-0.2,0.2-0.3c0-0.1,0.1-0.2,0.1-0.2c0-0.1,0-0.2,0.1-0.2c0-0.1,0.1-0.2,0.1-0.3c0-0.1,0-0.2,0-0.3
								c0-0.2,0-0.4-0.1-0.5c0-0.1,0-0.2-0.1-0.2c0-0.1-0.1-0.1-0.1-0.2c0-0.1-0.1-0.1-0.1-0.2c0-0.1-0.1-0.1-0.1-0.2
								C564.7,816.2,564.7,816.2,564.7,816.2z"
                />
              </g>
            </g>
            <g>
              <g>
                <circle class="st18" cx="577.4" cy="801.1" r="0.7" />
              </g>
              <g>
                <path
                  class="st19"
                  d="M577.6,800.6C577.6,800.6,577.7,800.6,577.6,800.6c0.1,0,0.1,0,0.1,0c0,0,0,0,0.1,0c0,0,0,0,0.1,0.1
								c0,0,0,0.1,0.1,0.1c0,0,0,0.1,0,0.1c0,0,0,0.1,0,0.1c0,0,0,0.1,0,0.1c0,0,0,0.1,0,0.1c0,0,0,0.1-0.1,0.1c0,0,0,0-0.1,0.1
								c0,0-0.1,0-0.1,0c0,0,0,0,0,0s0,0,0,0c0,0,0-0.1,0.1-0.1c0,0,0,0,0-0.1c0,0,0,0,0-0.1c0,0,0,0,0-0.1c0,0,0,0,0-0.1
								c0,0,0-0.1,0-0.1c0,0,0,0,0-0.1c0,0,0,0,0-0.1C577.7,800.8,577.7,800.7,577.6,800.6C577.7,800.7,577.7,800.7,577.6,800.6
								C577.6,800.7,577.6,800.6,577.6,800.6z"
                />
              </g>
            </g>
          </g>
          <g>
            <g>
              <g>
                <circle class="st18" cx="434.6" cy="917.6" r="1.1" />
              </g>
              <g>
                <path
                  class="st19"
                  d="M435,916.9C435,916.9,435,916.9,435,916.9c0.1,0,0.1,0,0.1,0c0,0,0.1,0,0.1,0c0,0,0.1,0.1,0.1,0.1
								c0,0,0.1,0.1,0.1,0.1c0,0,0.1,0.1,0.1,0.2c0,0.1,0,0.1,0,0.2c0,0.1,0,0.1,0,0.2c0,0.1,0,0.1-0.1,0.2c0,0,0,0.1-0.1,0.1
								c0,0-0.1,0.1-0.1,0.1c-0.1,0.1-0.1,0.1-0.2,0.1c0,0-0.1,0-0.1,0s0,0,0-0.1c0,0,0.1-0.1,0.1-0.1c0,0,0-0.1,0-0.1
								c0,0,0-0.1,0-0.1c0,0,0-0.1,0-0.1c0,0,0-0.1,0-0.1c0-0.1,0-0.1,0-0.2c0,0,0-0.1,0-0.1c0,0,0-0.1,0-0.1c0,0,0-0.1-0.1-0.1
								C435.1,917,435,917,435,916.9C435,916.9,435,916.9,435,916.9z"
                />
              </g>
            </g>
            <g>
              <g>
                <ellipse class="st18" cx="421.4" cy="904.1" rx="2.6" ry="2.6" />
              </g>
              <g>
                <path
                  class="st19"
                  d="M422.2,902.3c0,0,0.1,0,0.2,0c0.1,0,0.1,0,0.2,0.1c0.1,0,0.2,0,0.2,0.1c0.1,0.1,0.2,0.1,0.3,0.2
								c0.1,0.1,0.2,0.2,0.2,0.3c0.1,0.1,0.1,0.2,0.2,0.4c0,0.1,0,0.3,0.1,0.4c0,0.1,0,0.3-0.1,0.4c0,0.1-0.1,0.3-0.2,0.4
								c-0.1,0.1-0.1,0.2-0.2,0.3c-0.1,0.1-0.2,0.2-0.3,0.2c-0.2,0.1-0.3,0.1-0.4,0.2c-0.1,0-0.2,0-0.2,0s0-0.1,0.1-0.2
								c0-0.1,0.1-0.2,0.2-0.4c0-0.1,0.1-0.2,0.1-0.2c0-0.1,0-0.2,0.1-0.3c0-0.1,0.1-0.2,0.1-0.3c0-0.1,0-0.2,0-0.3
								c0-0.2,0-0.4-0.1-0.5c0-0.1,0-0.2-0.1-0.2c0-0.1-0.1-0.1-0.1-0.2c0-0.1-0.1-0.1-0.1-0.2c0-0.1-0.1-0.1-0.1-0.2
								C422.3,902.4,422.2,902.3,422.2,902.3z"
                />
              </g>
            </g>
            <g>
              <g>
                <circle class="st18" cx="419.3" cy="878.8" r="1.4" />
              </g>
              <g>
                <path
                  class="st19"
                  d="M419.8,877.9C419.8,877.9,419.8,877.9,419.8,877.9c0.1,0,0.2,0,0.2,0c0,0,0.1,0,0.1,0.1
								c0,0,0.1,0.1,0.1,0.1c0.1,0,0.1,0.1,0.1,0.2c0,0.1,0.1,0.1,0.1,0.2c0,0.1,0,0.1,0,0.2c0,0.1,0,0.1,0,0.2c0,0.1,0,0.1-0.1,0.2
								c0,0.1-0.1,0.1-0.1,0.2c0,0-0.1,0.1-0.1,0.1c-0.1,0.1-0.2,0.1-0.2,0.1c-0.1,0-0.1,0-0.1,0s0,0,0-0.1c0-0.1,0.1-0.1,0.1-0.2
								c0,0,0-0.1,0.1-0.1c0,0,0-0.1,0-0.1c0,0,0-0.1,0-0.1c0,0,0-0.1,0-0.1c0-0.1,0-0.2,0-0.3c0,0,0-0.1,0-0.1c0,0,0-0.1,0-0.1
								c0,0,0-0.1-0.1-0.1C419.9,878.1,419.8,878,419.8,877.9C419.8,878,419.8,877.9,419.8,877.9z"
                />
              </g>
            </g>
            <g>
              <g>
                <ellipse class="st18" cx="449.5" cy="905.5" rx="1.3" ry="1.3" />
              </g>
              <g>
                <path
                  class="st19"
                  d="M449.9,904.7C449.9,904.7,449.9,904.7,449.9,904.7c0.1,0,0.1,0,0.2,0c0,0,0.1,0,0.1,0
								c0,0,0.1,0.1,0.1,0.1c0,0,0.1,0.1,0.1,0.1c0,0.1,0.1,0.1,0.1,0.2c0,0.1,0,0.1,0,0.2c0,0.1,0,0.1,0,0.2c0,0.1,0,0.1-0.1,0.2
								c0,0.1-0.1,0.1-0.1,0.1c0,0-0.1,0.1-0.1,0.1c-0.1,0.1-0.2,0.1-0.2,0.1c-0.1,0-0.1,0-0.1,0s0,0,0-0.1c0,0,0.1-0.1,0.1-0.2
								c0,0,0-0.1,0-0.1c0,0,0-0.1,0-0.1c0,0,0-0.1,0-0.1c0,0,0-0.1,0-0.1c0-0.1,0-0.2,0-0.3c0,0,0-0.1,0-0.1c0,0,0-0.1,0-0.1
								c0,0,0-0.1-0.1-0.1C449.9,904.8,449.9,904.8,449.9,904.7C449.9,904.7,449.9,904.7,449.9,904.7z"
                />
              </g>
            </g>
            <g>
              <g>
                <ellipse class="st18" cx="442.5" cy="891.5" rx="1.2" ry="1.2" />
              </g>
              <g>
                <path
                  class="st19"
                  d="M442.9,890.7C442.9,890.7,442.9,890.7,442.9,890.7c0.1,0,0.1,0,0.2,0c0,0,0.1,0,0.1,0
								c0,0,0.1,0.1,0.1,0.1c0,0,0.1,0.1,0.1,0.1c0,0.1,0.1,0.1,0.1,0.2c0,0.1,0,0.1,0,0.2c0,0.1,0,0.1,0,0.2c0,0.1,0,0.1-0.1,0.2
								c0,0.1-0.1,0.1-0.1,0.1c0,0-0.1,0.1-0.1,0.1c-0.1,0.1-0.2,0.1-0.2,0.1c-0.1,0-0.1,0-0.1,0s0,0,0-0.1c0,0,0.1-0.1,0.1-0.2
								c0,0,0-0.1,0-0.1c0,0,0-0.1,0-0.1c0,0,0-0.1,0-0.1c0,0,0-0.1,0-0.1c0-0.1,0-0.2,0-0.2c0,0,0-0.1,0-0.1c0,0,0-0.1,0-0.1
								c0,0,0-0.1-0.1-0.1C442.9,890.8,442.9,890.8,442.9,890.7C442.9,890.7,442.9,890.7,442.9,890.7z"
                />
              </g>
            </g>
          </g>
          <g>
            <g>
              <g>
                <circle class="st18" cx="397" cy="856.7" r="0.7" />
              </g>
              <g>
                <path
                  class="st19"
                  d="M397.2,856.2C397.2,856.2,397.2,856.2,397.2,856.2c0.1,0,0.1,0,0.1,0c0,0,0,0,0.1,0c0,0,0,0,0.1,0.1
								c0,0,0,0.1,0.1,0.1c0,0,0,0.1,0,0.1c0,0,0,0.1,0,0.1c0,0,0,0.1,0,0.1c0,0,0,0.1,0,0.1c0,0,0,0.1-0.1,0.1c0,0,0,0-0.1,0.1
								c0,0-0.1,0-0.1,0c0,0,0,0,0,0s0,0,0,0c0,0,0-0.1,0.1-0.1c0,0,0,0,0-0.1c0,0,0,0,0-0.1c0,0,0,0,0-0.1c0,0,0,0,0-0.1
								c0,0,0-0.1,0-0.1c0,0,0,0,0-0.1c0,0,0,0,0-0.1C397.3,856.4,397.3,856.3,397.2,856.2C397.2,856.3,397.2,856.3,397.2,856.2
								C397.2,856.3,397.2,856.2,397.2,856.2z"
                />
              </g>
            </g>
            <g>
              <g>
                <circle class="st18" cx="393.1" cy="844.8" r="0.7" />
              </g>
              <g>
                <path
                  class="st19"
                  d="M393.4,844.3C393.4,844.3,393.4,844.3,393.4,844.3c0.1,0,0.1,0,0.1,0c0,0,0,0,0.1,0c0,0,0,0,0.1,0.1
								c0,0,0,0.1,0.1,0.1c0,0,0,0.1,0,0.1c0,0,0,0.1,0,0.1c0,0,0,0.1,0,0.1c0,0,0,0.1,0,0.1c0,0,0,0.1-0.1,0.1c0,0,0,0-0.1,0.1
								c0,0-0.1,0-0.1,0c0,0,0,0,0,0s0,0,0,0c0,0,0-0.1,0.1-0.1c0,0,0,0,0-0.1c0,0,0,0,0-0.1c0,0,0,0,0-0.1c0,0,0,0,0-0.1
								c0,0,0-0.1,0-0.1c0,0,0,0,0-0.1c0,0,0,0,0-0.1C393.5,844.4,393.4,844.4,393.4,844.3C393.4,844.4,393.4,844.4,393.4,844.3
								C393.4,844.3,393.4,844.3,393.4,844.3z"
                />
              </g>
            </g>
            <g>
              <g>
                <circle class="st18" cx="382.7" cy="823.8" r="1.2" />
              </g>
              <g>
                <path
                  class="st19"
                  d="M383.1,822.9C383.1,822.9,383.1,822.9,383.1,822.9c0.1,0,0.1,0,0.2,0c0,0,0.1,0,0.1,0
								c0,0,0.1,0.1,0.1,0.1c0,0,0.1,0.1,0.1,0.1c0,0.1,0.1,0.1,0.1,0.2c0,0.1,0,0.1,0,0.2c0,0.1,0,0.1,0,0.2c0,0.1,0,0.1-0.1,0.2
								c0,0.1-0.1,0.1-0.1,0.1c0,0-0.1,0.1-0.1,0.1c-0.1,0.1-0.2,0.1-0.2,0.1c-0.1,0-0.1,0-0.1,0s0,0,0-0.1c0,0,0.1-0.1,0.1-0.2
								c0,0,0-0.1,0-0.1c0,0,0-0.1,0-0.1c0,0,0-0.1,0-0.1c0,0,0-0.1,0-0.1c0-0.1,0-0.2,0-0.3c0,0,0-0.1,0-0.1c0,0,0-0.1,0-0.1
								c0,0,0-0.1-0.1-0.1C383.1,823.1,383.1,823,383.1,822.9C383.1,823,383.1,822.9,383.1,822.9z"
                />
              </g>
            </g>
            <g>
              <g>
                <circle class="st18" cx="376.6" cy="834.4" r="1.6" />
              </g>
              <g>
                <path
                  class="st19"
                  d="M377.1,833.4c0,0,0,0,0.1,0c0,0,0.1,0,0.1,0c0,0,0.1,0,0.1,0.1c0,0,0.1,0.1,0.2,0.1
								c0.1,0.1,0.1,0.1,0.1,0.2c0,0.1,0.1,0.1,0.1,0.2c0,0.1,0,0.2,0,0.3c0,0.1,0,0.2,0,0.3c0,0.1-0.1,0.2-0.1,0.2
								c0,0.1-0.1,0.1-0.1,0.2c-0.1,0-0.1,0.1-0.2,0.1c-0.1,0.1-0.2,0.1-0.3,0.1c-0.1,0-0.1,0-0.1,0s0,0,0.1-0.1
								c0-0.1,0.1-0.1,0.1-0.2c0,0,0-0.1,0.1-0.1c0,0,0-0.1,0-0.2c0-0.1,0-0.1,0-0.2c0-0.1,0-0.1,0-0.2c0-0.1,0-0.2,0-0.3
								c0-0.1,0-0.1,0-0.1c0,0,0-0.1-0.1-0.1c0,0-0.1-0.1-0.1-0.1C377.2,833.6,377.1,833.5,377.1,833.4
								C377.1,833.4,377.1,833.4,377.1,833.4z"
                />
              </g>
            </g>
            <g>
              <g>
                <ellipse class="st18" cx="383.6" cy="814.8" rx="1.4" ry="1.4" />
              </g>
              <g>
                <path
                  class="st19"
                  d="M384.1,813.9C384.1,813.9,384.1,813.9,384.1,813.9c0.1,0,0.2,0,0.2,0c0,0,0.1,0,0.1,0.1
								c0,0,0.1,0.1,0.1,0.1c0.1,0,0.1,0.1,0.1,0.2c0,0.1,0.1,0.1,0.1,0.2c0,0.1,0,0.1,0,0.2c0,0.1,0,0.1,0,0.2c0,0.1,0,0.1-0.1,0.2
								c0,0.1-0.1,0.1-0.1,0.2c0,0-0.1,0.1-0.1,0.1c-0.1,0.1-0.2,0.1-0.2,0.1c-0.1,0-0.1,0-0.1,0s0,0,0-0.1c0-0.1,0.1-0.1,0.1-0.2
								c0,0,0-0.1,0.1-0.1c0,0,0-0.1,0-0.1c0,0,0-0.1,0-0.1c0,0,0-0.1,0-0.1c0-0.1,0-0.2,0-0.3c0,0,0-0.1,0-0.1c0,0,0-0.1,0-0.1
								c0,0,0-0.1-0.1-0.1C384.1,814,384.1,814,384.1,813.9C384.1,813.9,384.1,813.9,384.1,813.9z"
                />
              </g>
            </g>
            <g>
              <g>
                <ellipse class="st18" cx="400.2" cy="833.4" rx="1.4" ry="1.4" />
              </g>
              <g>
                <path
                  class="st19"
                  d="M400.6,832.5C400.6,832.5,400.7,832.5,400.6,832.5c0.1,0,0.2,0,0.2,0.1c0,0,0.1,0,0.1,0.1
								c0,0,0.1,0.1,0.1,0.1c0.1,0,0.1,0.1,0.1,0.2c0,0.1,0.1,0.1,0.1,0.2c0,0.1,0,0.2,0,0.2c0,0.1,0,0.2,0,0.2
								c0,0.1-0.1,0.1-0.1,0.2c0,0.1-0.1,0.1-0.1,0.2c0,0-0.1,0.1-0.1,0.1c-0.1,0.1-0.2,0.1-0.2,0.1c-0.1,0-0.1,0-0.1,0s0,0,0-0.1
								c0-0.1,0.1-0.1,0.1-0.2c0,0,0-0.1,0.1-0.1c0,0,0-0.1,0-0.1c0,0,0-0.1,0-0.1c0,0,0-0.1,0-0.1c0-0.1,0-0.2,0-0.3
								c0,0,0-0.1,0-0.1c0,0,0-0.1,0-0.1c0,0-0.1-0.1-0.1-0.1C400.7,832.6,400.7,832.6,400.6,832.5
								C400.7,832.5,400.6,832.5,400.6,832.5z"
                />
              </g>
            </g>
            <g>
              <g>
                <ellipse class="st18" cx="399.2" cy="812.7" rx="2.1" ry="2.1" />
              </g>
              <g>
                <path
                  class="st19"
                  d="M399.9,811.4c0,0,0.1,0,0.1,0c0,0,0.1,0,0.1,0c0.1,0,0.1,0,0.2,0.1c0.1,0,0.1,0.1,0.2,0.2
								c0.1,0.1,0.1,0.1,0.2,0.2c0,0.1,0.1,0.2,0.1,0.3c0,0.1,0,0.2,0,0.3c0,0.1,0,0.2,0,0.3c0,0.1-0.1,0.2-0.1,0.3
								c-0.1,0.1-0.1,0.2-0.2,0.2c-0.1,0.1-0.1,0.1-0.2,0.2c-0.1,0.1-0.3,0.1-0.3,0.1c-0.1,0-0.1,0-0.1,0s0,0,0.1-0.1
								c0-0.1,0.1-0.2,0.2-0.3c0-0.1,0-0.1,0.1-0.2c0-0.1,0-0.1,0.1-0.2c0-0.1,0-0.1,0-0.2c0-0.1,0-0.1,0-0.2c0-0.1,0-0.3-0.1-0.4
								c0-0.1,0-0.1-0.1-0.2c0-0.1,0-0.1-0.1-0.2c0-0.1-0.1-0.1-0.1-0.2c0,0-0.1-0.1-0.1-0.1C399.9,811.4,399.9,811.4,399.9,811.4z"
                />
              </g>
            </g>
          </g>
        </g>
      </g>
    </g>
  </g>
  <g id="Layer_10">
    <g>
      <path
        class="st17"
        d="M457.3,935.7c-0.4-1.1-1.8-1.4-3-1.2c-3,0.5-5.6,3.2-8.6,2.9c-0.8-0.1-1.5-0.3-2.3-0.4
			c-1.5-0.1-2.8,0.8-3.9,1.7c-1.6,1.3-2.9,3-3.8,4.8c-1,1.9-1.7,4-2.9,5.8c-1,1.4-2.3,2.5-3.6,3.5c-0.7,0.6-1.4,1.2-2.1,1.7
			c1.4-1.7,2.7-3.6,3.4-5.8c0.7-2.1,0.8-4.4,1.3-6.6s1.4-4.5,3.3-5.7c1-0.7,2.2-1.1,3-1.9c1.7-1.7,1.4-4.4,1.1-6.7
			c-0.3-2.3-0.2-5.2,1.9-6.4c1.3-0.8,3.3-1.1,3.3-2.5c0-0.9-1-1.5-1.9-1.7c-2.3-0.4-4.6,1.1-5.7,3.1c-1.1,2-1.1,4.4-0.7,6.7
			c0.3,1.7,0.9,3.7-0.2,5.1c-0.8,1.2-2.4,1.5-3.6,2.3c-3.1,2-3,6.3-3.4,9.9c-0.4,3.5-1.5,7-3.2,10.1c0.2-1.4,0.1-2.8,0.1-4.5
			c0-3.1-0.9-6.3,0.2-9.2c1-2.5,3.3-4.4,3.8-7c1-5-5.3-9.9-3.2-14.6c0.8-1.8,2.6-3,3.2-4.9c0.9-3.1-2.5-7.1-2.7-9.3
			c-0.3-2.2-4.6-2.7-4.2,0.2c0.1,0.5,3.2,5.8,2.2,8.6c-0.5,1.4-1.7,2.5-2.5,3.8c-3.1,5.9,4.7,13.4,1.5,19.2c-1,1.8-3,3.2-3.2,5.3
			c-0.1,0.9,0.2,1.8,0.5,2.7c1.1,3.6,1.8,7.7,1.3,11.4c-0.5-2.4-2.2-4.4-3.5-6.5c-1.5-2.3-2.6-5.1-1.4-7.6c1-1.9,3.2-3.1,3.8-5.2
			c0.6-2.1-0.7-4.1-1.4-6.1c-0.7-2-0.9-4.3-0.5-6.4c0.2-1.2,0.6-2.5-0.2-3.4c-1-1.3-3.3-0.5-4,1c-0.7,1.5-0.2,3.2,0.2,4.8
			c0.7,2.4,1.3,4.8,2,7.2c0.2,0.7,0.4,1.5,0.3,2.3c-0.4,1.6-2.2,2.4-3.3,3.7c-1.1,1.3-1.3,3.1-1,4.8s1.2,3.2,2.1,4.6
			c1.8,2.7,3.8,5.3,6.2,7.5l0.2,0.8l1.5,6.9h0.7c0,0,0.5-4.9,0.8-6.9c0.1-0.5,0.1-0.8,0.1-0.8c1.2-0.7,3.3-0.8,4.5-1.3
			c3.6-1.7,6.8-4.3,9.1-7.5c2.4-3.4,4.2-7.7,8.2-8.8c2.6-0.7,5.3,0.1,7.9-0.5C456.3,938.3,457.8,937.1,457.3,935.7z"
      />
    </g>
    <g>
      <path
        class="st17"
        d="M393.7,950.5c-0.2,0.7-1,0.9-1.7,0.9c-0.7,0-1.5-0.1-2.1,0.2c-0.9,0.5-1,1.9-1.7,2.6c-0.7,0.7-1.8,0.7-2.6,1
			c-1.3,0.5-2.9,2.5-3.8,4.2c0.7-1.7,0.7-3.8,1.4-5.5c0.1-0.2,0.2-0.5,0.4-0.6c0.2-0.2,0.5-0.2,0.8-0.3c1-0.2,1.8-0.9,2.3-1.8
			c0.5-1,0.6-2.2,1.5-2.9c0.6-0.5,1.4-0.5,2.1-0.5c0.7,0,1.5-0.1,2.1-0.6c0.6-0.5,0.8-1.5,0.2-1.9c0.2,1-1,1.7-1.9,1.8
			c-1,0.1-2.1,0-2.9,0.6c-1.3,1-1,3.2-2.4,3.9c-0.5,0.3-1.1,0.3-1.7,0.5c-0.8,0.4-1.3,1.3-1.4,2.2c-0.2,0.9-0.1,1.8-0.4,2.7
			c-0.2,0.7-0.6,1.3-0.9,2c-0.3,0.6-0.5,1.2-0.7,1.8c-0.1,0,0.7-4,0.8-5.6c0.1-1.3-0.2-2.6-0.4-3.9c-0.1-1.3,0-2.7,0.8-3.7
			c0.3-0.4,0.8-0.8,1.1-1.2c0.2-0.4,0.4-0.8,0.6-1.2c0.8-2,1.6-4.1,2.3-6.1c0.2-0.6,0.3-1.6-0.4-1.7c-0.2,0-0.4,0.1-0.6,0.2
			c-1.1,0.7-1.5,2-1.7,3.3s-0.2,2.6-0.7,3.7c-0.6,1.2-1.8,2.2-2.2,3.5c-0.4,1.1-0.1,2.4,0,3.6c0.4,2.6,0.3,5.3-0.1,7.9
			c0,0,0,1.2,0,1.3c-0.2,0-0.4-0.1-0.4-0.4c-0.1-1.9-0.3-3.9-0.4-5.8c-0.1-1.2-0.2-2.5-0.6-3.6c-0.3-0.9-0.9-1.8-1.2-2.7
			c-1-2.9,0.1-6,1.2-8.9c0.2-0.5,0.3-1.3-0.3-1.5c-0.3-0.1-0.6,0.1-0.8,0.2c-0.9,0.7-1.1,1.9-1.1,3.1s0.3,2.3,0.2,3.4
			c-0.1,1-0.4,2.1-0.3,3.1c0.2,1.3,1.2,2.3,1.7,3.6c1.1,2.4,0.4,5.3,1.4,7.7l0,1c-0.1-0.4-0.3-0.8-0.4-1.2c-0.5-1.2-1.3-2.3-1.5-3.6
			c-0.2-1.2,0.1-2.5-0.4-3.6c-0.7-1.4-2.4-1.9-3.5-3.1c-0.9-1-1.3-2.4-1.2-3.8c0.1-1.3,0.6-2.6,1.2-3.9c0.2-0.4,0.4-0.8,0.4-1.3
			s-0.4-0.9-0.8-0.9c-0.5,0-0.8,0.6-0.8,1.1s0.2,1,0.1,1.5c0,0.5-0.3,0.9-0.4,1.3c-0.8,2-0.7,4.5,0.7,6.1c1.2,1.4,3.2,2.2,3.7,4
			c0.2,0.6,0.2,1.3,0.2,2c0.2,2,1.4,3.8,2.5,5.4l0,0.9c-0.2-0.8-0.7-1.5-1.4-1.9c-0.4-0.2-0.8-0.4-1.1-0.6c-1.3-0.9-1-2.9-1.4-4.4
			c-0.4-1.5-1.7-2.6-3.2-2.9c-0.9-0.2-1.9-0.1-2.8-0.2c-0.9-0.1-1.9-0.7-2.1-1.6c-0.1-0.6,0.1-1.2,0.2-1.9c0.1-0.6,0.1-1.4-0.5-1.7
			c-0.6,1.4-0.7,3-0.2,4.4c0.1,0.4,0.3,0.8,0.6,1.1c0.5,0.5,1.3,0.7,2,0.8c1.2,0.2,2.4,0.4,3.4,1c1.1,0.6,2,1.5,2.2,2.7
			c0.1,0.7,0,1.4,0.2,2c0.6,1.5,2.7,1.7,3.5,3.1c0.3,0.6,0.2,1.4,0.1,2.1c0.4,0.2,0.9,0.2,1.3,0.4c0.9-1.8,2.2-4.1,2.2-4.1
			c0.5-0.7,1.1-1.3,1.6-2c0.4-0.5,0.9-1,1.4-1.4c0.9-0.5,2.1-0.4,2.9-1.1c0.6-0.5,0.9-1.3,1.2-2c0.1-0.3,0.3-0.7,0.6-0.9
			c0.5-0.4,1.1-0.4,1.7-0.3c0.6,0.1,1.2,0.1,1.7-0.1S394.1,951,393.7,950.5z"
      />
    </g>
    <g>
      <path
        class="st17"
        d="M519.2,953.3c-0.4-1.3-1.7-2.2-3-2.1c-2,0.1-3.2,2.1-4.5,3.7c-0.8,1-1.8,1.9-2.9,2.7
			c0.4-1.2,0.6-2.5,1.2-3.7c0.8-1.6,2.3-2.8,2.7-4.5c0.3-1.1,0.1-2.3-0.1-3.5c-0.3-1.7-1-3.8-2.7-4.1c-0.4-0.1-0.8,0-1.2,0.2
			c-0.9,0.6-0.8,1.9-0.7,3c0.4,3.3-0.3,6.8-1.7,9.9c-1.1,2.6-2.6,5-4.2,7.3l-0.4,0.3c2.4-6.5,3.7-13.4,5-20.2c0.2-1,0.4-2.1,0-3
			c-0.5-1.5-2.2-2.4-3.7-2c-0.2,0.1-0.4,0.1-0.5,0.3c-0.3,0.3-0.2,0.7-0.1,1.1c0.7,4,1,8.2,0.3,12.2c-0.3,1.7-0.8,3.4-1.1,5.1
			c-0.2,1.4-0.3,2.9-0.4,4.3c0-0.1,0-0.2-0.1-0.3c0.2-3.6-0.1-7.2-0.9-10.7c-0.5-2.2-1.2-4.5-0.4-6.6c0.5-1.4,1.7-2.9,0.9-4.2
			c-0.7-1.1-2.5-1-3.4-0.1c-0.9,0.9-1.1,2.3-1.1,3.6c0,4.1,1.5,8,2.6,12c-1.1-2.1-2.6-4-4.1-5.8c-1.1-1.3-2.4-2.7-2.2-4.4
			c0.1-1.2,1-2.6,0.3-3.6c-0.3-0.4-0.9-0.6-1.4-0.6c-2.1-0.1-3.7,2.3-3.5,4.4c0.2,2.1,1.6,3.9,3.1,5.5c1.9,2,3.9,3.8,5.7,5.9
			c0.6,0.7,1.1,1.4,1.6,2.2c-2.3-2.8-5.4-5-8.6-6.7c-1.6-0.9-3.4-1.8-4.3-3.4c-0.4-0.8-0.8-1.9-1.7-2.1c-0.3,0-0.6,0-0.9,0.2
			c-0.7,0.3-1.4,0.8-1.7,1.5c-0.3,0.7-0.3,1.6,0.2,2.1c0.4,0.4,1,0.6,1.5,0.8c1.4,0.6,2.7,1.5,3.7,2.7c1.1,1.5,1.9,3.3,3.4,4.3
			c1.4,0.9,3.2,0.9,4.7,1.5c2.5,1,3.9,3.4,5.2,5.7l1.8,0c0-0.1-0.1-0.5-0.1-0.6c3.8-0.7,7.3-3,10.2-5.7c1.6-1.4,3.2-3.1,5.4-3.2
			c0.9-0.1,2,0,2.3-0.9C519.4,953.8,519.3,953.5,519.2,953.3z"
      />
    </g>
    <g>
      <path
        class="st17"
        d="M593.4,943.5c-0.1-0.1-0.3-0.1-0.5-0.1c-2.3-0.2-4.5-0.3-6.8-0.5c-0.4,0-0.9-0.1-1.3,0.1
			c-0.5,0.2-0.8,0.7-1,1.1c-0.9,1.7-1.2,3.5-2,5.2c-0.8,1.7-2.2,3.3-4,3.6c-1,0.2-2.1-0.1-3.1,0c-1.5,0.2-2.7,1.3-3.5,2.5
			c-0.2,0.4-0.6,0.7-1,1.1c0.5-0.8,1-1.6,1.6-2.3c1.6-2,3.4-3.7,4.7-5.8c1.6-2.6,2.4-5.6,2.3-8.6c-0.1-2.7-0.8-5.8,0.9-7.9
			c1.7-2.2,4.9-2.3,7.6-2.9c1.2-0.3,2.5-0.7,3.3-1.7s1-2.6,0-3.4c-1.2-1.1-3.2-0.3-4.3,0.9c-1.1,1.2-2,2.7-3.5,3.4
			c-0.8,0.3-1.6,0.4-2.4,0.7c-2.4,0.8-3.9,3.3-4.4,5.8c-0.5,2.5-0.1,5.1-0.2,7.6c0,1.1-0.1,2.3-0.6,3.3c-0.5,1.2-1.6,2.1-2.4,3.1
			c-2.3,2.6-4,5.7-4.5,9.1c-0.2,0.2-0.2,0.7-0.3,0.9c0-0.4,0.1-0.9,0.2-1.3c0.4-1.3,1-2.4,1.3-3.7c0.6-2.1,0.4-4.3,0.8-6.4
			c0.3-1.6,0.9-3.1,1.1-4.7c0.2-2-0.4-4-1.2-5.8c-0.9-2.1-2.1-4.5-1.2-6.6c0.4-1,1.3-1.8,1.9-2.8c0.8-1.3,0.9-2.9,1-4.4
			c0.3-3.8,0.7-7.6,1-11.3c0.1-0.9,0.1-1.9-0.3-2.7s-1.6-1.3-2.3-0.8c-0.3,0.2-0.5,0.6-0.6,1c-1.7,4.2-0.4,8.8-0.2,13.3
			c0,0.6,0,1.1-0.2,1.7c-0.3,0.7-0.8,1.3-1.4,1.8c-2.5,2.8-3.1,7.1-1.5,10.5c0.8,1.8,2.2,3.3,2.4,5.3c0.1,1-0.2,2.1-0.5,3.1
			c-0.2,0.8-0.4,1.8-0.6,2.9c-2.3-3.7-9.2-2.6-11.5-6.5c-1.7-2.9,0.4-6.7-0.2-10.1c-0.4-2.5-2.3-4.6-3-7c-0.4-1.4-0.3-2.9-0.9-4.2
			c-0.6-1.3-2.2-2.4-3.4-1.7c-0.5,0.3-0.9,0.8-1.1,1.4c-0.8,2.2,0.4,4.5,1.8,6.4c1.4,1.8,3.2,3.5,3.7,5.8c0.8,3.1-1,6.4-0.6,9.6
			c0.3,2.2,1.7,4.2,3.6,5.2c1.6,0.9,3.6,1.1,5.2,2c1.9,1,3.2,3,3.5,5.1c0.2,1,0.1,2.2,0.1,3.3c-0.5-0.8-1.3-1.5-1.9-2.2
			c-1.2-1.1-2.9-1.6-4.5-1.3c-1.1,0.2-2.1,0.7-3.2,0.7c-1.4,0-2.6-1-3.4-2.1c-0.8-1.1-1.4-2.3-2.2-3.5c-1.1-1.5-2.5-2.7-4.2-3.5
			c-1.4-0.6-3-1-4.4-0.4c-1.4,0.6-2.3,2.4-1.5,3.7c0.3,0.6,0.9,1,1.6,1.3c3.2,1.4,7.4,0.6,9.9,3.1c1.2,1.2,1.8,3.1,3.4,3.7
			c1.5,0.5,3.2-0.3,4.8-0.1c0.7,0.1,1.3,0.4,1.9,0.8c1.3,0.7,2.6,1.4,3.9,2.1c0.1,0.8-0.1,3.3,0.5,3.9c0,0,1.8,0.7,1.8,0.5l1.3-2.8
			c1.2-2.4,2.7-4.8,5.5-5.1c1.3-0.1,2.5,0.3,3.8,0c1.7-0.4,2.9-1.9,3.7-3.4c0.8-1.6,1.2-3.3,2.1-4.8s2.4-2.8,4.2-2.7
			c1.1,0.1,2.1,0.7,3.2,0.8c1.1,0.2,2.5-0.4,2.5-1.5C593.7,943.9,593.6,943.6,593.4,943.5z"
      />
    </g>
    <g>
      <path
        class="st17"
        d="M229.9,935.7c-0.4-1.1-1.8-1.4-3-1.2c-3,0.5-5.6,3.2-8.6,2.9c-0.8-0.1-1.5-0.3-2.3-0.4
			c-1.5-0.1-2.8,0.8-3.9,1.7c-1.6,1.3-2.9,3-3.8,4.8c-1,1.9-1.7,4-2.9,5.8c-1,1.4-2.3,2.5-3.6,3.5c-0.7,0.6-1.4,1.2-2.1,1.7
			c1.4-1.7,2.7-3.6,3.4-5.8c0.7-2.1,0.8-4.4,1.3-6.6c0.5-2.2,1.4-4.5,3.3-5.7c1-0.7,2.2-1.1,3-1.9c1.7-1.7,1.4-4.4,1.1-6.7
			c-0.3-2.3-0.2-5.2,1.9-6.4c1.3-0.8,3.3-1.1,3.3-2.5c0-0.9-1-1.5-1.9-1.7c-2.3-0.4-4.6,1.1-5.7,3.1c-1.1,2-1.1,4.4-0.7,6.7
			c0.3,1.7,0.9,3.7-0.2,5.1c-0.8,1.2-2.4,1.5-3.6,2.3c-3.1,2-3,6.3-3.4,9.9c-0.4,3.5-1.5,7-3.2,10.1c0.2-1.4,0.1-2.8,0.1-4.5
			c0-3.1-0.9-6.3,0.2-9.2c1-2.5,3.3-4.4,3.8-7c1-5-5.3-9.9-3.2-14.6c0.8-1.8,2.6-3,3.2-4.9c0.9-3.1-2.5-7.1-2.7-9.3
			c-0.3-2.2-4.6-2.7-4.2,0.2c0.1,0.5,3.2,5.8,2.2,8.6c-0.5,1.4-1.7,2.5-2.5,3.8c-3.1,5.9,4.7,13.4,1.5,19.2c-1,1.8-3,3.2-3.2,5.3
			c-0.1,0.9,0.2,1.8,0.5,2.7c1.1,3.6,1.8,7.7,1.3,11.4c-0.5-2.4-2.2-4.4-3.5-6.5c-1.5-2.3-2.6-5.1-1.4-7.6c1-1.9,3.2-3.1,3.8-5.2
			c0.6-2.1-0.7-4.1-1.4-6.1c-0.7-2-0.9-4.3-0.5-6.4c0.2-1.2,0.6-2.5-0.2-3.4c-1-1.3-3.3-0.5-4,1c-0.7,1.5-0.2,3.2,0.2,4.8
			c0.7,2.4,1.3,4.8,2,7.2c0.2,0.7,0.4,1.5,0.3,2.3c-0.4,1.6-2.2,2.4-3.3,3.7c-1.1,1.3-1.3,3.1-1,4.8c0.3,1.7,1.2,3.2,2.1,4.6
			c1.8,2.7,3.8,5.3,6.2,7.5l0.2,0.8l1.5,6.9h0.7c0,0,0.5-4.9,0.8-6.9c0.1-0.5,0.1-0.8,0.1-0.8c1.2-0.7,3.3-0.8,4.5-1.3
			c3.6-1.7,6.8-4.3,9.1-7.5c2.4-3.4,4.2-7.7,8.2-8.8c2.6-0.7,5.3,0.1,7.9-0.5C228.9,938.3,230.4,937.1,229.9,935.7z"
      />
    </g>
    <g>
      <path
        class="st17"
        d="M166.3,950.5c-0.2,0.7-1,0.9-1.7,0.9c-0.7,0-1.5-0.1-2.1,0.2c-0.9,0.5-1,1.9-1.7,2.6c-0.7,0.7-1.8,0.7-2.6,1
			c-1.3,0.5-2.9,2.5-3.8,4.2c0.7-1.7,0.7-3.8,1.4-5.5c0.1-0.2,0.2-0.5,0.4-0.6c0.2-0.2,0.5-0.2,0.8-0.3c1-0.2,1.8-0.9,2.3-1.8
			c0.5-1,0.6-2.2,1.5-2.9c0.6-0.5,1.4-0.5,2.1-0.5c0.7,0,1.5-0.1,2.1-0.6c0.6-0.5,0.8-1.5,0.2-1.9c0.2,1-1,1.7-1.9,1.8
			c-1,0.1-2.1,0-2.9,0.6c-1.3,1-1,3.2-2.4,3.9c-0.5,0.3-1.1,0.3-1.7,0.5c-0.8,0.4-1.3,1.3-1.4,2.2c-0.2,0.9-0.1,1.8-0.4,2.7
			c-0.2,0.7-0.6,1.3-0.9,2c-0.3,0.6-0.5,1.2-0.7,1.8c-0.1,0,0.7-4,0.8-5.6c0.1-1.3-0.2-2.6-0.4-3.9c-0.1-1.3,0-2.7,0.8-3.7
			c0.3-0.4,0.8-0.8,1.1-1.2c0.2-0.4,0.4-0.8,0.6-1.2c0.8-2,1.6-4.1,2.3-6.1c0.2-0.6,0.3-1.6-0.4-1.7c-0.2,0-0.4,0.1-0.6,0.2
			c-1.1,0.7-1.5,2-1.7,3.3c-0.2,1.3-0.2,2.6-0.7,3.7c-0.6,1.2-1.8,2.2-2.2,3.5c-0.4,1.1-0.1,2.4,0,3.6c0.4,2.6,0.3,5.3-0.1,7.9
			c0,0,0,1.2,0,1.3c-0.2,0-0.4-0.1-0.4-0.4c-0.1-1.9-0.3-3.9-0.4-5.8c-0.1-1.2-0.2-2.5-0.6-3.6c-0.3-0.9-0.9-1.8-1.2-2.7
			c-1-2.9,0.1-6,1.2-8.9c0.2-0.5,0.3-1.3-0.3-1.5c-0.3-0.1-0.6,0.1-0.8,0.2c-0.9,0.7-1.1,1.9-1.1,3.1s0.3,2.3,0.2,3.4
			c-0.1,1-0.4,2.1-0.3,3.1c0.2,1.3,1.2,2.3,1.7,3.6c1.1,2.4,0.4,5.3,1.4,7.7l0,1c-0.1-0.4-0.3-0.8-0.4-1.2c-0.5-1.2-1.3-2.3-1.5-3.6
			c-0.2-1.2,0.1-2.5-0.4-3.6c-0.7-1.4-2.4-1.9-3.5-3.1c-0.9-1-1.3-2.4-1.2-3.8c0.1-1.3,0.6-2.6,1.2-3.9c0.2-0.4,0.4-0.8,0.4-1.3
			c0-0.4-0.4-0.9-0.8-0.9c-0.5,0-0.8,0.6-0.8,1.1s0.2,1,0.1,1.5c0,0.5-0.3,0.9-0.4,1.3c-0.8,2-0.7,4.5,0.7,6.1
			c1.2,1.4,3.2,2.2,3.7,4c0.2,0.6,0.2,1.3,0.2,2c0.2,2,1.4,3.8,2.5,5.4l0,0.9c-0.2-0.8-0.7-1.5-1.4-1.9c-0.4-0.2-0.8-0.4-1.1-0.6
			c-1.3-0.9-1-2.9-1.4-4.4c-0.4-1.5-1.7-2.6-3.2-2.9c-0.9-0.2-1.9-0.1-2.8-0.2c-0.9-0.1-1.9-0.7-2.1-1.6c-0.1-0.6,0.1-1.2,0.2-1.9
			c0.1-0.6,0.1-1.4-0.5-1.7c-0.6,1.4-0.7,3-0.2,4.4c0.1,0.4,0.3,0.8,0.6,1.1c0.5,0.5,1.3,0.7,2,0.8c1.2,0.2,2.4,0.4,3.4,1
			c1.1,0.6,2,1.5,2.2,2.7c0.1,0.7,0,1.4,0.2,2c0.6,1.5,2.7,1.7,3.5,3.1c0.3,0.6,0.2,1.4,0.1,2.1c0.4,0.2,0.9,0.2,1.3,0.4
			c0.9-1.8,2.2-4.1,2.2-4.1c0.5-0.7,1.1-1.3,1.6-2c0.4-0.5,0.9-1,1.4-1.4c0.9-0.5,2.1-0.4,2.9-1.1c0.6-0.5,0.9-1.3,1.2-2
			c0.1-0.3,0.3-0.7,0.6-0.9c0.5-0.4,1.1-0.4,1.7-0.3c0.6,0.1,1.2,0.1,1.7-0.1S166.7,951,166.3,950.5z"
      />
    </g>
    <g>
      <path
        class="st17"
        d="M291.8,953.3c-0.4-1.3-1.7-2.2-3-2.1c-2,0.1-3.2,2.1-4.5,3.7c-0.8,1-1.8,1.9-2.9,2.7
			c0.4-1.2,0.6-2.5,1.2-3.7c0.8-1.6,2.3-2.8,2.7-4.5c0.3-1.1,0.1-2.3-0.1-3.5c-0.3-1.7-1-3.8-2.7-4.1c-0.4-0.1-0.8,0-1.2,0.2
			c-0.9,0.6-0.8,1.9-0.7,3c0.4,3.3-0.3,6.8-1.7,9.9c-1.1,2.6-2.6,5-4.2,7.3l-0.4,0.3c2.4-6.5,3.7-13.4,5-20.2c0.2-1,0.4-2.1,0-3
			c-0.5-1.5-2.2-2.4-3.7-2c-0.2,0.1-0.4,0.1-0.5,0.3c-0.3,0.3-0.2,0.7-0.1,1.1c0.7,4,1,8.2,0.3,12.2c-0.3,1.7-0.8,3.4-1.1,5.1
			c-0.2,1.4-0.3,2.9-0.4,4.3c0-0.1,0-0.2-0.1-0.3c0.2-3.6-0.1-7.2-0.9-10.7c-0.5-2.2-1.2-4.5-0.4-6.6c0.5-1.4,1.7-2.9,0.9-4.2
			c-0.7-1.1-2.5-1-3.4-0.1c-0.9,0.9-1.1,2.3-1.1,3.6c0,4.1,1.5,8,2.6,12c-1.1-2.1-2.6-4-4.1-5.8c-1.1-1.3-2.4-2.7-2.2-4.4
			c0.1-1.2,1-2.6,0.3-3.6c-0.3-0.4-0.9-0.6-1.4-0.6c-2.1-0.1-3.7,2.3-3.5,4.4c0.2,2.1,1.6,3.9,3.1,5.5c1.9,2,3.9,3.8,5.7,5.9
			c0.6,0.7,1.1,1.4,1.6,2.2c-2.3-2.8-5.4-5-8.6-6.7c-1.6-0.9-3.4-1.8-4.3-3.4c-0.4-0.8-0.8-1.9-1.7-2.1c-0.3,0-0.6,0-0.9,0.2
			c-0.7,0.3-1.4,0.8-1.7,1.5s-0.3,1.6,0.2,2.1c0.4,0.4,1,0.6,1.5,0.8c1.4,0.6,2.7,1.5,3.7,2.7c1.1,1.5,1.9,3.3,3.4,4.3
			c1.4,0.9,3.2,0.9,4.7,1.5c2.5,1,3.9,3.4,5.2,5.7l1.8,0c0-0.1-0.1-0.5-0.1-0.6c3.8-0.7,7.3-3,10.2-5.7c1.6-1.4,3.2-3.1,5.4-3.2
			c0.9-0.1,2,0,2.3-0.9C291.9,953.8,291.9,953.5,291.8,953.3z"
      />
    </g>
    <g>
      <path
        class="st17"
        d="M365.9,943.5c-0.1-0.1-0.3-0.1-0.5-0.1c-2.3-0.2-4.5-0.3-6.8-0.5c-0.4,0-0.9-0.1-1.3,0.1
			c-0.5,0.2-0.8,0.7-1,1.1c-0.9,1.7-1.2,3.5-2,5.2c-0.8,1.7-2.2,3.3-4,3.6c-1,0.2-2.1-0.1-3.1,0c-1.5,0.2-2.7,1.3-3.5,2.5
			c-0.2,0.4-0.6,0.7-1,1.1c0.5-0.8,1-1.6,1.6-2.3c1.6-2,3.4-3.7,4.7-5.8c1.6-2.6,2.4-5.6,2.3-8.6c-0.1-2.7-0.8-5.8,0.9-7.9
			c1.7-2.2,4.9-2.3,7.6-2.9c1.2-0.3,2.5-0.7,3.3-1.7s1-2.6,0-3.4c-1.2-1.1-3.2-0.3-4.3,0.9c-1.1,1.2-2,2.7-3.5,3.4
			c-0.8,0.3-1.6,0.4-2.4,0.7c-2.4,0.8-3.9,3.3-4.4,5.8c-0.5,2.5-0.1,5.1-0.2,7.6c0,1.1-0.1,2.3-0.6,3.3c-0.5,1.2-1.6,2.1-2.4,3.1
			c-2.3,2.6-4,5.7-4.5,9.1c-0.2,0.2-0.2,0.7-0.3,0.9c0-0.4,0.1-0.9,0.2-1.3c0.4-1.3,1-2.4,1.3-3.7c0.6-2.1,0.4-4.3,0.8-6.4
			c0.3-1.6,0.9-3.1,1.1-4.7c0.2-2-0.4-4-1.2-5.8c-0.9-2.1-2.1-4.5-1.2-6.6c0.4-1,1.3-1.8,1.9-2.8c0.8-1.3,0.9-2.9,1-4.4
			c0.3-3.8,0.7-7.6,1-11.3c0.1-0.9,0.1-1.9-0.3-2.7s-1.6-1.3-2.3-0.8c-0.3,0.2-0.5,0.6-0.6,1c-1.7,4.2-0.4,8.8-0.2,13.3
			c0,0.6,0,1.1-0.2,1.7c-0.3,0.7-0.8,1.3-1.4,1.8c-2.5,2.8-3.1,7.1-1.5,10.5c0.8,1.8,2.2,3.3,2.4,5.3c0.1,1-0.2,2.1-0.5,3.1
			c-0.2,0.8-0.4,1.8-0.6,2.9c-2.3-3.7-9.2-2.6-11.5-6.5c-1.7-2.9,0.4-6.7-0.2-10.1c-0.4-2.5-2.3-4.6-3-7c-0.4-1.4-0.3-2.9-0.9-4.2
			c-0.6-1.3-2.2-2.4-3.4-1.7c-0.5,0.3-0.9,0.8-1.1,1.4c-0.8,2.2,0.4,4.5,1.8,6.4c1.4,1.8,3.2,3.5,3.7,5.8c0.8,3.1-1,6.4-0.6,9.6
			c0.3,2.2,1.7,4.2,3.6,5.2c1.6,0.9,3.6,1.1,5.2,2c1.9,1,3.2,3,3.5,5.1c0.2,1,0.1,2.2,0.1,3.3c-0.5-0.8-1.3-1.5-1.9-2.2
			c-1.2-1.1-2.9-1.6-4.5-1.3c-1.1,0.2-2.1,0.7-3.2,0.7c-1.4,0-2.6-1-3.4-2.1c-0.8-1.1-1.4-2.3-2.2-3.5c-1.1-1.5-2.5-2.7-4.2-3.5
			c-1.4-0.6-3-1-4.4-0.4c-1.4,0.6-2.3,2.4-1.5,3.7c0.3,0.6,0.9,1,1.6,1.3c3.2,1.4,7.4,0.6,9.9,3.1c1.2,1.2,1.8,3.1,3.4,3.7
			c1.5,0.5,3.2-0.3,4.8-0.1c0.7,0.1,1.3,0.4,1.9,0.8c1.3,0.7,2.6,1.4,3.9,2.1c0.1,0.8-0.1,3.3,0.5,3.9c0,0,1.8,0.7,1.8,0.5l1.3-2.8
			c1.2-2.4,2.7-4.8,5.5-5.1c1.3-0.1,2.5,0.3,3.8,0c1.7-0.4,2.9-1.9,3.7-3.4s1.2-3.3,2.1-4.8c0.9-1.5,2.4-2.8,4.2-2.7
			c1.1,0.1,2.1,0.7,3.2,0.8c1.1,0.2,2.5-0.4,2.5-1.5C366.3,943.9,366.2,943.6,365.9,943.5z"
      />
    </g>
    <g>
      <g>
        <g>
          <g>
            <g>
              <path
                class="st17"
                d="M252.6,883.2c4.2,7.6,14.9,1.9,22.9-2.4c-4.6-2.3-9.7-4.5-14-4.3C257.3,876.8,252.6,879,252.6,883.2z"
              />
              <path
                class="st17"
                d="M281.8,879.7c0.1-0.6,0.5-2.3,0.9-2.4l-0.1,0.1c-1.7,0.5-4.2,1.9-7.1,3.5c2.6,1.3,5,2.6,7.1,3.6
							C281.8,882.7,281.5,881.6,281.8,879.7z"
              />
            </g>
          </g>
          <g>
            <g>
              <path
                class="st17"
                d="M420.2,827.4c3.2,5.7,11.4,1.5,17.4-1.8c-3.5-1.7-7.4-3.4-10.6-3.3C423.8,822.5,420.2,824.2,420.2,827.4
							z"
              />
              <path
                class="st17"
                d="M442.4,824.7c0.1-0.5,0.3-1.7,0.7-1.8l-0.1,0.1c-1.3,0.4-3.2,1.5-5.4,2.6c2,1,3.8,2,5.4,2.7
							C442.4,827,442.2,826.2,442.4,824.7z"
              />
            </g>
          </g>
          <g>
            <g>
              <path
                class="st17"
                d="M441.5,840.7c3.2,5.8,11.4,1.5,17.4-1.8c-3.5-1.8-7.4-3.4-10.6-3.3C445.1,835.8,441.5,837.5,441.5,840.7
							z"
              />
              <path
                class="st17"
                d="M463.7,838c0.1-0.5,0.3-1.7,0.7-1.8l-0.1,0.1c-1.3,0.4-3.2,1.5-5.4,2.6c2,1,3.8,2,5.4,2.7
							C463.8,840.3,463.5,839.4,463.7,838z"
              />
            </g>
          </g>
          <g>
            <g>
              <path
                class="st17"
                d="M457.3,832.1c2.3,4.2,8.3,1.1,12.7-1.3c-2.6-1.3-5.4-2.5-7.8-2.4C459.9,828.5,457.3,829.8,457.3,832.1z"
              />
              <path
                class="st17"
                d="M473.5,830.2c0-0.3,0.3-1.3,0.5-1.3l-0.1,0c-0.9,0.3-2.3,1.1-3.9,1.9c1.4,0.7,2.8,1.5,3.9,2
							C473.5,831.9,473.3,831.2,473.5,830.2z"
              />
            </g>
          </g>
          <g>
            <g>
              <path
                class="st17"
                d="M455.3,813.5c1.8,3.2,6.4,0.8,9.7-1c-2-1-4.1-1.9-5.9-1.8C457.3,810.8,455.3,811.7,455.3,813.5z"
              />
              <path
                class="st17"
                d="M467.7,812c0-0.3,0.2-1,0.4-1l-0.1,0c-0.7,0.2-1.8,0.8-3,1.5c1.1,0.6,2.1,1.1,3,1.5
							C467.7,813.3,467.6,812.8,467.7,812z"
              />
            </g>
          </g>
          <g>
            <g>
              <path
                class="st17"
                d="M433.1,816.6c2.8,5,9.9,1.3,15.2-1.6c-3.1-1.5-6.4-3-9.3-2.9C436.2,812.4,433.1,813.8,433.1,816.6z"
              />
              <path
                class="st17"
                d="M452.5,814.3c0-0.4,0.3-1.5,0.6-1.6l-0.1,0.1c-1.1,0.4-2.8,1.3-4.7,2.3c1.7,0.9,3.3,1.7,4.7,2.4
							C452.5,816.3,452.3,815.6,452.5,814.3z"
              />
            </g>
          </g>
          <g>
            <g>
              <path
                class="st17"
                d="M478.4,827.8c2.7,4.9,9.7,1.3,14.9-1.5c-3-1.5-6.3-2.9-9.1-2.8C481.5,823.6,478.4,825,478.4,827.8z"
              />
              <path
                class="st17"
                d="M497.5,825.5c0-0.4,0.3-1.5,0.6-1.6l-0.1,0c-1.1,0.3-2.7,1.3-4.6,2.3c1.7,0.8,3.3,1.7,4.6,2.3
							C497.5,827.5,497.3,826.7,497.5,825.5z"
              />
            </g>
          </g>
          <g>
            <g>
              <path
                class="st17"
                d="M471.5,819.8c2,3.5,7,0.9,10.6-1.1c-2.1-1.1-4.5-2.1-6.5-2C473.7,816.8,471.5,817.8,471.5,819.8z"
              />
              <path
                class="st17"
                d="M485,818.2c0-0.3,0.2-1.1,0.4-1.1l-0.1,0c-0.8,0.2-2,0.9-3.3,1.6c1.2,0.6,2.3,1.2,3.3,1.7
							C485.1,819.6,484.9,819,485,818.2z"
              />
            </g>
          </g>
          <g>
            <g>
              <path
                class="st17"
                d="M455.6,823.5c1.9,3.3,6.6,0.9,10.1-1c-2-1-4.3-2-6.2-1.9C457.6,820.7,455.6,821.7,455.6,823.5z"
              />
              <path
                class="st17"
                d="M468.4,822c0-0.3,0.2-1,0.4-1.1l-0.1,0c-0.7,0.2-1.9,0.8-3.1,1.5c1.1,0.6,2.2,1.2,3.1,1.6
							C468.4,823.3,468.3,822.8,468.4,822z"
              />
            </g>
          </g>
          <g>
            <g>
              <path
                class="st17"
                d="M271.2,895c3.2,5.7,11.4,1.5,17.4-1.8c-3.5-1.8-7.4-3.4-10.6-3.3C274.8,890.1,271.2,891.7,271.2,895z"
              />
              <path
                class="st17"
                d="M293.4,892.3c0.1-0.5,0.3-1.7,0.7-1.8l-0.1,0.1c-1.3,0.4-3.2,1.5-5.4,2.6c2,1,3.8,2,5.4,2.7
							C293.5,894.6,293.2,893.7,293.4,892.3z"
              />
            </g>
          </g>
          <g>
            <g>
              <path
                class="st17"
                d="M271.2,872c3.2,5.8,11.4,1.5,17.4-1.8c-3.5-1.8-7.4-3.4-10.6-3.3C274.8,867.1,271.2,868.8,271.2,872z"
              />
              <path
                class="st17"
                d="M293.4,869.4c0.1-0.5,0.3-1.7,0.7-1.8l-0.1,0.1c-1.3,0.4-3.2,1.5-5.4,2.6c2,1,3.8,2,5.4,2.7
							C293.5,871.7,293.2,870.8,293.4,869.4z"
              />
            </g>
          </g>
          <g>
            <g>
              <path
                class="st17"
                d="M292.3,882.8c3.2,5.8,11.4,1.5,17.4-1.8c-3.5-1.8-7.4-3.4-10.6-3.3C295.9,877.9,292.3,879.6,292.3,882.8
							z"
              />
              <path
                class="st17"
                d="M314.6,880.2c0.1-0.5,0.3-1.7,0.7-1.8l-0.1,0.1c-1.3,0.4-3.2,1.5-5.4,2.6c2,1,3.8,2,5.4,2.7
							C314.6,882.5,314.3,881.6,314.6,880.2z"
              />
            </g>
          </g>
        </g>
        <g>
          <g>
            <g>
              <path
                class="st17"
                d="M518.6,901.6c4,7.2,14.3,1.9,21.9-2.3c-4.4-2.2-9.3-4.3-13.4-4.1C523.1,895.4,518.6,897.5,518.6,901.6z"
              />
              <path
                class="st17"
                d="M546.5,898.2c0.1-0.6,0.4-2.2,0.9-2.3l-0.1,0.1c-1.6,0.5-4,1.8-6.8,3.3c2.5,1.2,4.8,2.5,6.8,3.4
							C546.5,901.1,546.2,900,546.5,898.2z"
              />
            </g>
          </g>
          <g>
            <g>
              <path
                class="st17"
                d="M536.4,912.8c3.1,5.5,10.9,1.4,16.7-1.7c-3.3-1.7-7-3.3-10.2-3.1C539.8,908.1,536.4,909.7,536.4,912.8z"
              />
              <path
                class="st17"
                d="M557.7,910.3c0.1-0.4,0.3-1.7,0.7-1.8l-0.1,0.1c-1.2,0.4-3.1,1.4-5.1,2.5c1.9,0.9,3.6,1.9,5.1,2.6
							C557.7,912.5,557.5,911.6,557.7,910.3z"
              />
            </g>
          </g>
          <g>
            <g>
              <path
                class="st17"
                d="M536.4,890.9c3.1,5.5,10.9,1.4,16.7-1.7c-3.3-1.7-7-3.3-10.2-3.1C539.8,886.2,536.4,887.8,536.4,890.9z"
              />
              <path
                class="st17"
                d="M557.7,888.3c0.1-0.4,0.3-1.7,0.7-1.8l-0.1,0.1c-1.2,0.4-3.1,1.4-5.1,2.5c1.9,0.9,3.6,1.9,5.1,2.6
							C557.7,890.5,557.5,889.7,557.7,888.3z"
              />
            </g>
          </g>
          <g>
            <g>
              <path
                class="st17"
                d="M556.6,901.2c3.1,5.5,10.9,1.4,16.7-1.7c-3.3-1.7-7-3.3-10.2-3.1C560,896.5,556.6,898.1,556.6,901.2z"
              />
              <path
                class="st17"
                d="M577.9,898.7c0.1-0.4,0.3-1.7,0.7-1.8l-0.1,0.1c-1.2,0.4-3.1,1.4-5.1,2.5c1.9,0.9,3.6,1.9,5.1,2.6
							C577.9,900.9,577.7,900,577.9,898.7z"
              />
            </g>
          </g>
        </g>
      </g>
    </g>
  </g>
  <g id="Layer_11">
    <g>
      <polygon
        class="st20"
        points="264.5,324.2 227.8,293.6 197.4,330.5 179.1,286.3 135.1,304.9 139.4,257.3 91.8,253.2 117.7,213.1 
			77.5,187.4 119.1,163.9 95.4,122.4 143.2,121 141.4,73.3 184.4,94.2 205.1,51.1 233.4,89.6 271.7,61.1 278.9,108.3 326.1,100.9 
			310.5,146 355.7,161.4 320.9,194.1 353.9,228.7 307.8,241.5 320.9,287.5 274.2,277.4 		"
      />
      <polygon
        class="st21"
        points="298.9,306.9 255.3,287.2 235.9,330.9 206.5,293.2 169,322.8 160.5,275.8 113.5,284.7 127.8,239.1 
			82.1,225 115.9,191.3 82,157.7 127.6,143.5 113.2,98 160.2,106.6 168.6,59.6 206.2,89.1 235.5,51.4 255,95 298.5,75.2 
			295.6,122.9 343.3,125.5 318.5,166.4 359.5,190.9 318.6,215.6 343.5,256.4 295.8,259.2 		"
      />
      <circle class="st20" cx="218.9" cy="191.6" r="97" />
      <circle class="st21" cx="218.9" cy="191.6" r="81.2" />
    </g>
  </g>
  <g id="Layer_12">
    <path
      class="st1"
      d="M461.3,426.3l-9.2-0.1V426l-0.3,0c-4.9,0-8.8-4-8.8-8.9l0-0.1c0-4.9,4-8.9,8.9-8.9l0.3,0v0l36.2,0
		c4.9,0,8.8-4,8.9-8.9l0-0.1c0-4.9-3.9-8.9-8.8-8.9l-16,0c-0.2,0-0.3,0-0.5,0l-7.9,0c-4.9,0-8.8-4-8.8-8.9l0-0.1
		c0-4.9,4-8.9,8.9-8.9l7.9,0c0.2,0,0.3,0,0.5,0h36.1c4.9,0,8.8-4,8.8-8.9v-0.1c0-4.9-4-8.9-8.8-8.9H374.1c-4.9,0-8.8,4-8.8,8.9v0.1
		c0,4.9,4,8.9,8.8,8.9h11c0.6,0,1.1,0.1,1.7,0.2l5.3,0c4.9,0,8.8,4,8.8,8.9l0,0.1c0,4.9-4,8.9-8.9,8.9l-72.9,0
		c-3.9,0.9-6.9,4.4-6.9,8.7l0,0.1c0,4.9,3.9,8.9,8.8,8.9l83.9,0.1v0.3l5.2,0c4.9,0,8.8,4,8.8,8.9l0,0.1c0,4.9-4,8.9-8.9,8.9h0
		c-2.9,0-5.2,2.3-5.2,5.2v7.4c0,2.9,2.3,5.2,5.2,5.2h7.9l43.2,0.1c4,0,7.3-3.3,7.3-7.3l0-3.1C468.6,429.6,465.3,426.3,461.3,426.3z"
    />
    <path
      class="st1"
      d="M723.1,86.7l12.5,0.1v0.3l0.4,0c6.6,0,12,5.4,12,12.1l0,0.1c0,6.7-5.4,12.1-12.1,12.1l-0.4,0v0.1l-49.3,0
		c-6.6,0-12,5.4-12.1,12.1l0,0.1c0,6.7,5.4,12.1,12,12.1l21.8,0c0.2,0,0.4,0,0.7,0l10.8,0c6.6,0,12,5.4,12,12.1l0,0.1
		c0,6.7-5.4,12.1-12.1,12.1l-10.7,0c-0.2,0-0.5,0-0.7,0h-6.4c-6.6,0-12,5.4-12,12.1v0.1c0,6.7,5.4,12.1,12,12.1h192.8
		c6.6,0,12-5.4,12-12.1v-0.1c0-6.7-5.4-12.1-12-12.1H827c-0.8,0-1.5-0.1-2.3-0.2l-7.2,0c-6.6,0-12-5.4-12-12.1l0-0.1
		c0-6.7,5.4-12.1,12.1-12.1l32.6,0.1c5.4-1.2,9.4-6,9.4-11.8l0-0.1c0-6.7-5.4-12.1-12-12.1l-47.7-0.1v-0.3l-7.1,0
		c-6.6,0-12-5.4-12-12.1l0-0.1c0-6.7,5.4-12.1,12.1-12.1h0c3.9,0,7.1-3.2,7.1-7.1V69.7c0-3.9-3.2-7.1-7.1-7.1H782l-58.9-0.2
		c-5.5,0-10,4.5-10,10l0,4.3C713.2,82.2,717.6,86.7,723.1,86.7z"
    />
    <path
      class="st1"
      d="M1324.7,61h-203.5c-7.4,0-13.4,6-13.4,13.5v0.1c0,7.4,6,13.5,13.4,13.5h16.6c0.9,0,1.7,0.1,2.5,0.2l8,0
		c7.4,0,13.4,6,13.4,13.5l0,0.1c0,7.4-6,13.5-13.4,13.4l-110.3-0.1c-6,1.3-10.5,6.7-10.5,13.1v0.1c0,7.4,6,13.5,13.4,13.5l253.2,0.2
		c7.4,0,13.4-6,13.4-13.4l0-0.1c0-7.4-6-13.5-13.4-13.5l-24.2,0c-0.2,0-0.5,0-0.7,0l-12,0c-7.4,0-13.4-6-13.4-13.5v-0.1
		c0-7.4,6-13.5,13.4-13.4l11.9,0c0.3,0,0.5,0,0.8,0h54.7c7.4,0,13.4-6,13.4-13.5v-0.1C1338,67.1,1332,61,1324.7,61z"
    />
    <path
      class="st1"
      d="M807.3,291.9l9.2,0.1v0.2l0.3,0c4.9,0,8.8,4,8.8,8.9l0,0.1c0,4.9-4,8.9-8.9,8.9l-0.3,0v0l-36.2,0
		c-4.9,0-8.8,4-8.9,8.9l0,0.1c0,4.9,3.9,8.9,8.8,8.9l169.2-0.1c3.9-0.9,6.9-4.4,6.9-8.7l0-0.1c0-4.9-3.9-8.9-8.8-8.9l-83.9-0.1v-0.3
		l-5.2,0c-4.9,0-8.8-4-8.8-8.9l0-0.1c0-4.9,4-8.9,8.9-8.9h0c2.9,0,5.2-2.3,5.2-5.2v-7.4c0-2.9-2.3-5.2-5.2-5.2h-7.9l-43.2-0.1
		c-4,0-7.3,3.3-7.3,7.3l0,3.1C800,288.6,803.3,291.9,807.3,291.9z"
    />
    <path
      class="st1"
      d="M1333.4,324.9H1161c-3.2,1.3-5.4,4.4-5.4,8.1l0,0.1c0,4.8,3.9,8.8,8.7,8.8l1.1,0v0.3l45.9,0
		c4.8,0,8.7,3.9,8.7,8.8l0,0.1c0,4.8-3.9,8.7-8.7,8.7l-17.8,0v0.1l-69-0.1c-4.8,0-8.7,3.9-8.7,8.7v0.1c0,4.8,3.9,8.8,8.7,8.8
		l146.4,0.2c4.8,0,8.7-3.9,8.7-8.7l0-0.1c0-4.8-3.9-8.8-8.7-8.8l-9.4,0v-0.3l-9.2,0c-4.8,0-8.7-3.9-8.7-8.8v-0.1
		c0-4.8,3.9-8.7,8.7-8.7l9.2,0v-0.1l69,0.1c4.8,0,8.7-3.9,8.7-8.7l0-0.1C1339.2,329.3,1336.8,326.1,1333.4,324.9z"
    />
    <path
      class="st1"
      d="M251.6,181.8h219.2c4.1-1.7,6.9-5.6,6.9-10.3l0-0.1c0-6.1-4.9-11.1-11.1-11.1l-1.4,0v-0.4l-58.4,0
		c-6.1,0-11.1-5-11.1-11.1l0-0.1c0-6.1,5-11.1,11.1-11.1l22.7,0v-0.1l87.8,0.1c6.1,0,11.1-5,11.1-11.1l0-0.1
		c0-6.1-4.9-11.1-11.1-11.1L331.2,115c-6.1,0-11.1,5-11.1,11.1l0,0.1c0,6.1,4.9,11.1,11.1,11.1l11.9,0v0.4l11.7,0
		c6.1,0,11.1,5,11.1,11.1l0,0.1c0,6.1-5,11.1-11.1,11.1l-11.7,0v0.1l-87.8-0.1c-6.1,0-11.1,5-11.1,11.1l0,0.1
		C244.2,176.1,247.3,180.2,251.6,181.8z"
    />
    <path
      class="st1"
      d="M23.2,303.2h142.3c2.6-1.1,4.5-3.7,4.5-6.7l0,0c0-4-3.2-7.2-7.2-7.2l-0.9,0V289l-37.9,0c-4,0-7.2-3.2-7.2-7.2
		l0,0c0-4,3.2-7.2,7.2-7.2l14.7,0v-0.1l57,0.1c4,0,7.2-3.2,7.2-7.2l0,0c0-4-3.2-7.2-7.2-7.2l-120.9-0.1c-4,0-7.2,3.2-7.2,7.2l0,0
		c0,4,3.2,7.2,7.2,7.2l7.7,0v0.2l7.6,0c4,0,7.2,3.2,7.2,7.2l0,0c0,4-3.2,7.2-7.2,7.2l-7.6,0v0.1l-57-0.1c-4,0-7.2,3.2-7.2,7.2l0,0
		C18.4,299.6,20.4,302.3,23.2,303.2z"
    />
  </g>
</svg>
